<?xml version="1.0" encoding="UTF-8" standalone="no"?>
<svg
   width="456"
   height="456"
   viewBox="0 0 456 456"
   version="1.1"
   xml:space="preserve"
   style="fill-rule:evenodd;clip-rule:evenodd;stroke-linejoin:round;stroke-miterlimit:2;"
   id="svg10"
   sodipodi:docname="appiconfg.svg"
   inkscape:version="1.2.2 (732a01da63, 2022-12-09)"
   xmlns:inkscape="http://www.inkscape.org/namespaces/inkscape"
   xmlns:sodipodi="http://sodipodi.sourceforge.net/DTD/sodipodi-0.dtd"
   xmlns="http://www.w3.org/2000/svg"
   xmlns:svg="http://www.w3.org/2000/svg"><defs
   id="defs14" /><sodipodi:namedview
   id="namedview12"
   pagecolor="#ffffff"
   bordercolor="#000000"
   borderopacity="0.25"
   inkscape:showpageshadow="2"
   inkscape:pageopacity="0.0"
   inkscape:pagecheckerboard="0"
   inkscape:deskcolor="#d1d1d1"
   showgrid="false"
   inkscape:zoom="1.2855077"
   inkscape:cx="140.41145"
   inkscape:cy="254.3742"
   inkscape:window-width="1920"
   inkscape:window-height="1009"
   inkscape:window-x="1917"
   inkscape:window-y="-8"
   inkscape:window-maximized="1"
   inkscape:current-layer="svg10" />
    
    
    
    
<path
   style="display:inline;fill:#e6ceaa;fill-opacity:1;stroke:#000000;stroke-width:0.755906;stroke-linecap:round;stroke-linejoin:round;stroke-dasharray:2.26772, 2.26772;stroke-dashoffset:0;stroke-opacity:1"
   d="m 136.6238,211.42559 c -7.45593,-14.8422 -13.8911,-66.07636 1.78309,-97.71738 10.27375,-20.739189 60.64836,-63.656249 94.83002,-66.653229 31.9596,-2.80216 66.75922,21.64246 82.52895,49.66239 13.86613,24.637579 14.29117,90.560599 5.9604,134.732299 -7.833,41.53294 -25.90832,82.18082 -51.35127,115.87891 -19.42438,25.72676 -51.73812,62.34626 -74.27604,61.83179 -8.27827,-0.18878 -25.02416,-1.20962 -27.5097,-28.26374 l 3.95227,-20.46272 -15.41458,-26.90046 -9.68735,-13.79511 -11.9017,-8.77694 -5.92061,-76.75273 7.00652,-22.78308"
   id="path1030-4"
   sodipodi:nodetypes="csssaasc"
   inkscape:label="path1030-4" /><path
   style="display:inline;fill:#69532c;fill-opacity:0.642086;stroke:none;stroke-width:0.377951;stroke-linecap:round;stroke-linejoin:round;stroke-dasharray:none;stroke-dashoffset:0;stroke-opacity:1"
   d="m 159.05892,297.26655 c 0,0 4.47124,0.995 6.74638,1.05382 4.32814,0.11166 8.95708,0.40841 12.91968,-1.34109 4.67687,-2.06489 8.29588,-6.1871 11.46178,-10.20997 3.26119,-4.144 6.38199,-8.79278 7.4567,-13.96084 0.8426,-4.05177 -0.33749,-8.29074 -0.99619,-12.37664 -0.65822,-4.08274 -1.06066,-8.37095 -2.94143,-12.05151 -1.75215,-3.42885 -3.88637,-7.44472 -7.48723,-8.78734 -4.67218,-1.74207 -9.97522,0.94395 -14.78186,2.26785 -6.2939,1.73358 -18.15301,7.36164 -18.15301,7.36164 l -4.81074,3.26724 -6.01789,16.22522 0.91699,13.77661 z"
   id="path3843-3"
   sodipodi:nodetypes="caaaaaaaac" /><path
   style="display:inline;fill:#dc9846;fill-opacity:1;stroke:none;stroke-width:0.755906;stroke-linecap:round;stroke-linejoin:round;stroke-dasharray:none;stroke-opacity:1"
   d="m 143.3721,302.95427 c 7.9933,-1.44496 17.68353,-17.9578 16.96429,-29.19966 -0.81743,-12.77623 -8.12138,-18.83084 -23.35061,-30.44163 -2.00975,-1.3876 -4.29158,-1.2049 -6.76089,-1.22754 l 5.313,68.87596 c 1.96267,-3.48065 2.83046,-6.53776 7.83421,-8.00713 z"
   id="path878-1"
   sodipodi:nodetypes="cacccc" /><path
   id="path296-7"
   style="display:inline;fill:#dc9846;fill-opacity:1;stroke:none;stroke-width:0.755906;stroke-linecap:round;stroke-linejoin:round;stroke-dasharray:none;stroke-opacity:1"
   d="m 190.08229,329.55429 c 0,0 2.20764,-8.57391 4.41189,-12.34508 7.12182,-12.18447 19.61215,-20.424 27.73889,-31.95867 11.74906,-16.67594 24.03833,-33.8267 30.03133,-53.34106 4.58227,-14.92055 5.67528,-31.16334 3.89723,-46.67343 -1.1924,-10.40168 -9.62832,-29.88944 -9.62832,-29.88944 l -12.13981,-28.57381 -6.39353,-6.14391 c 0,0 -11.20481,2.58821 -14.93677,-0.72609 -2.37064,-2.10532 -2.32278,-6.29729 -1.6047,-9.3903 0.90783,-3.91038 3.24675,-11.008349 7.049,-9.75203 20.99095,6.93572 34.71564,39.95246 41.17391,64.70564 6.82268,26.14995 3.65138,55.21119 -4.53886,80.96328 -7.52614,23.66404 -26.03873,48.24181 -39.55292,63.07988 z"
   sodipodi:nodetypes="caaaacccaassscc" /><path
   id="path1016-6"
   style="display:inline;fill:#dc9846;fill-opacity:1;stroke:none;stroke-width:0.755906;stroke-linecap:round;stroke-linejoin:round;stroke-dasharray:none;stroke-opacity:1"
   d="m 163.71695,149.20842 c 24.17874,3.90714 45.21981,-10.60348 70.67655,-22.43562 l -6.39353,-6.14391 c 0,0 -21.44721,9.80959 -32.94757,10.43803 -7.89256,0.43128 -23.25368,-4.65716 -23.25368,-4.65716 0,0 -14.54798,21.75376 -8.08177,22.79866 z"
   sodipodi:nodetypes="sccacs" /><path
   id="path1365"
   style="display:inline;fill:#ebb46b;fill-opacity:1;stroke:none;stroke-width:0.755906;stroke-linecap:round;stroke-linejoin:round;stroke-dasharray:none;stroke-dashoffset:0;stroke-opacity:1"
   d="m 191.51398,230.98979 c 0,0 -15.5101,-23.21545 -20.07723,-36.25985 -5.08462,-14.52243 -9.04655,-30.1874 -7.7198,-45.52152 0.69519,-8.03534 5.33684,-15.21748 8.08177,-22.79866 8.23245,-22.73711 45.58978,-50.603519 62.95676,-49.005539 40.6641,3.74157 49.66276,45.792029 54.8762,62.997659 5.73323,18.92118 12.15109,64.13232 2.29253,93.80677 -7.56786,22.77935 -30.07039,45.24359 -44.47397,56.55992 l -38.51348,24.83125 c -9.72179,4.95036 -16.37764,10.38913 -22.16985,17.93363 -7.64096,9.95266 -13.87127,23.03391 -15.33016,34.40405 0,0 -2.47526,8.55156 -2.8475,12.95913 -1.4381,17.02807 13.04177,28.98885 27.5097,28.26374 22.53792,0.51447 54.85166,-36.10503 74.27604,-61.83179 25.44295,-33.69809 43.51827,-74.34597 51.35127,-115.87891 8.33077,-44.1717 7.90573,-110.09472 -5.9604,-134.732299 -15.76973,-28.01993 -50.56935,-52.46455 -82.52895,-49.66239 -34.18166,2.99698 -84.55627,45.91404 -94.83002,66.653229 -15.67419,31.64102 -9.23902,82.87518 -1.78309,97.71738 6.27177,12.48489 34.81295,20.15882 54.89018,19.5642"
   sodipodi:nodetypes="caassssccscscsssscsc" /><path
   style="display:inline;fill:#ebc393;fill-opacity:1;stroke:none;stroke-width:0.377951;stroke-linecap:round;stroke-linejoin:round"
   d="m 136.6238,211.42559 -7.00652,22.78308 0.60761,7.87677 6.76091,1.22752 11.4872,9.17675 c 0,0 3.10173,-2.35356 4.81076,-3.26722 5.75972,-3.07927 11.85909,-5.62806 18.15301,-7.36166 4.80662,-1.3239 10.10966,-4.00992 14.78184,-2.26787 3.60088,1.34262 5.73508,5.35851 7.48723,8.78736 1.88077,3.68056 2.28319,7.96877 2.94145,12.05151 0.6587,4.0859 1.83877,8.32487 0.99617,12.37664 -1.07471,5.16806 -4.44269,9.63266 -7.4567,13.96084 -1.51847,2.18053 -3.30161,4.20001 -5.29087,5.95889 -1.87188,1.65513 -3.82889,3.38702 -6.17089,4.25108 -4.06336,1.49912 -8.64169,2.00934 -12.91968,1.34109 -6.7464,-1.05382 -10.58523,-4.66953 -10.58523,-4.66953 0,0 -8.27426,8.23718 -11.84799,9.30343 -4.86688,1.45215 -7.83421,8.00713 -7.83421,8.00713 l 5.95084,4.38845 c 0,0 5.75644,-4.82751 9.26005,-5.84058 3.08291,-0.89145 6.48273,-0.64832 9.6254,0 4.72407,0.97455 13.29423,5.72749 13.29423,5.72749 0,0 13.08094,-9.45342 18.85328,-15.05703 4.21177,-4.08865 8.88494,-8.11946 11.39662,-13.43125 3.99127,-8.44098 3.78848,-18.31024 5.01845,-27.5705 0.76271,-5.74223 4.13994,-12.18605 1.45896,-17.31715 -3.36853,-6.44697 -18.88174,-10.87104 -18.88174,-10.87104 0,0 -20.31424,0.33884 -29.69062,-2.99038 -9.46905,-3.36212 -25.19956,-16.57382 -25.19956,-16.57382 z"
   id="path1510"
   sodipodi:nodetypes="cccccaaaaaaaaascsccaacaaaacac" /><path
   style="display:inline;fill:#e8bb85;fill-opacity:1;stroke:none;stroke-width:0.377951;stroke-linecap:round;stroke-linejoin:round"
   d="m 141.48873,315.34985 c 0,0 4.22773,2.62464 5.95086,4.38849 3.9247,4.01743 6.67244,9.05269 9.68735,13.79511 5.54382,8.7204 15.41458,26.90046 15.41458,26.90046 0,0 4.25903,-10.92043 7.13418,-16.00239 2.98077,-5.26867 10.40659,-14.87719 10.40659,-14.87719 0,0 -4.85519,-1.18117 -7.28279,-1.77175 -2.42762,-0.59059 -5.57713,0.0588 -7.28281,-1.7717 -2.48098,-2.6624 0.18441,-7.75359 -1.84828,-10.77412 -1.51154,-2.24612 -4.39333,-3.24981 -6.89427,-4.27536 -2.02454,-0.83024 -4.22626,-1.20862 -6.39996,-1.45213 -3.18864,-0.35724 -9.6254,0 -9.6254,0 l -12.23546,3.64634 z"
   id="path1730"
   sodipodi:nodetypes="caacacaaaaaccc" /><path
   style="display:inline;fill:#000080;fill-opacity:0;stroke:#000000;stroke-width:1.51181;stroke-linecap:round;stroke-linejoin:round;stroke-dasharray:none;stroke-opacity:1"
   d="m 136.98578,243.31298 c 15.22923,11.61079 22.53318,17.6654 23.35061,30.44163 0.71924,11.24186 -8.97099,27.7547 -16.96429,29.19966"
   id="path878"
   sodipodi:nodetypes="cac" /><path
   style="display:inline;fill:#000080;fill-opacity:0;stroke:#000000;stroke-width:1.51181;stroke-linecap:round;stroke-linejoin:round;stroke-dasharray:none;stroke-opacity:1"
   d="m 191.51398,230.98979 c -20.07721,0.59462 -48.61839,-7.07931 -54.89016,-19.5642 -7.45593,-14.8422 -13.8911,-66.07636 1.78309,-97.71738 10.27373,-20.739189 60.64834,-63.656249 94.83002,-66.653229 31.95958,-2.80216 66.75922,21.64244 82.52895,49.66239 13.86615,24.637579 14.29115,90.560599 5.9604,134.732299 -7.83302,41.53294 -25.9083,82.18082 -51.35129,115.87891 -19.42438,25.72676 -51.73812,62.34626 -74.27602,61.83179 -8.27827,-0.18878 -25.02418,-1.20964 -27.50972,-28.26374"
   id="path1030"
   sodipodi:nodetypes="cssssaasc" /><path
   style="display:inline;fill:#000080;fill-opacity:0;stroke:#000000;stroke-width:1.51181;stroke-linecap:round;stroke-linejoin:round;stroke-dasharray:none;stroke-opacity:1"
   d="m 218.5075,100.76047 c 32.11626,20.13271 34.71564,39.95244 41.17391,64.70564 6.8227,26.14995 3.65138,55.21116 -4.53884,80.96328 -7.52616,23.66404 -26.03873,48.24181 -39.55294,63.07986"
   id="path296"
   sodipodi:nodetypes="caac" /><path
   style="display:inline;fill:#000080;fill-opacity:0;stroke:#000000;stroke-width:1.51181;stroke-linecap:round;stroke-linejoin:round;stroke-dasharray:none;stroke-opacity:1"
   d="m 163.71695,149.20842 c 30.18657,1.82745 45.21983,-10.60348 70.67655,-22.43562"
   id="path1016"
   sodipodi:nodetypes="cc" /><path
   style="display:inline;fill:#000080;fill-opacity:0;stroke:#000000;stroke-width:0.377951;stroke-linecap:round;stroke-linejoin:round;stroke-dasharray:none;stroke-opacity:1"
   d="m 171.79874,126.40976 c 2.89065,-23.23264 45.58976,-50.603519 62.95676,-49.005539 40.6641,3.74157 49.66274,45.792029 54.87618,62.997659 5.73323,18.92118 12.15109,64.1323 2.29253,93.80677 -7.56786,22.77935 -30.07037,45.24359 -44.47395,56.55992"
   id="path1033"
   sodipodi:nodetypes="cssac" /><path
   style="display:inline;fill:#000080;fill-opacity:0;stroke:#000000;stroke-width:0.377951;stroke-linecap:round;stroke-linejoin:round;stroke-dasharray:none;stroke-opacity:1"
   d="m 171.43677,367.9375 c 1.45889,-11.37014 7.68918,-24.45139 15.33016,-34.40405 5.79221,-7.5445 12.44804,-12.98327 22.16985,-17.93367"
   id="path2772"
   sodipodi:nodetypes="cac" /><path
   style="display:inline;fill:none;fill-opacity:1;stroke:#000000;stroke-width:0.377951;stroke-linecap:round;stroke-linejoin:round;stroke-dasharray:none;stroke-dashoffset:0;stroke-opacity:1"
   d="m 153.28374,249.22247 c 0,0 11.85911,-5.62806 18.15301,-7.36164 4.80664,-1.3239 10.10968,-4.00992 14.78186,-2.26785 3.60086,1.34262 5.73508,5.35849 7.48723,8.78734 1.88077,3.68056 2.28317,7.96877 2.94143,12.05151 0.65872,4.0859 1.83879,8.32487 0.99619,12.37664 -1.07471,5.16806 -4.19551,9.81684 -7.4567,13.96084 -3.1659,4.02287 -6.78491,8.14508 -11.46178,10.20997 -3.9626,1.7495 -8.59154,1.45263 -12.91968,1.34109 -2.27514,-0.0588 -6.74638,-1.05382 -6.74638,-1.05382"
   id="path3843"
   sodipodi:nodetypes="caaaaaaaac" /><path
   style="display:inline;fill:none;fill-opacity:1;stroke:#000000;stroke-width:0.377951;stroke-linecap:round;stroke-linejoin:round;stroke-opacity:1"
   d="m 182.7995,327.78258 c 0,0 -5.57713,0.0588 -7.28281,-1.7717 -2.48098,-2.6624 0.40158,-7.91263 -1.84828,-10.77412 -2.98637,-3.79826 -8.57016,-4.75294 -13.29423,-5.72749 -3.14269,-0.64832 -9.6254,0 -9.6254,0"
   id="path1239"
   sodipodi:nodetypes="caaac" /></svg>
