<?xml version="1.0" encoding="UTF-8" standalone="no"?>
<svg
   width="456"
   height="456"
   viewBox="0 0 456 456"
   version="1.1"
   xml:space="preserve"
   style="fill-rule:evenodd;clip-rule:evenodd;stroke-linejoin:round;stroke-miterlimit:2;"
   id="svg526"
   sodipodi:docname="splash.svg"
   inkscape:version="1.2.2 (732a01da63, 2022-12-09)"
   xmlns:inkscape="http://www.inkscape.org/namespaces/inkscape"
   xmlns:sodipodi="http://sodipodi.sourceforge.net/DTD/sodipodi-0.dtd"
   xmlns="http://www.w3.org/2000/svg"
   xmlns:svg="http://www.w3.org/2000/svg"><defs
   id="defs530" /><sodipodi:namedview
   id="namedview528"
   pagecolor="#ffffff"
   bordercolor="#000000"
   borderopacity="0.25"
   inkscape:showpageshadow="2"
   inkscape:pageopacity="0.0"
   inkscape:pagecheckerboard="0"
   inkscape:deskcolor="#d1d1d1"
   showgrid="false"
   inkscape:zoom="1.2855077"
   inkscape:cx="75.845519"
   inkscape:cy="251.26259"
   inkscape:window-width="1920"
   inkscape:window-height="1009"
   inkscape:window-x="1917"
   inkscape:window-y="-8"
   inkscape:window-maximized="1"
   inkscape:current-layer="svg526" />
    
    
    
    
<path
   style="display:inline;fill:#e6ceaa;fill-opacity:1;stroke:#000000;stroke-width:0.755906;stroke-linecap:round;stroke-linejoin:round;stroke-dasharray:2.26771, 2.26771;stroke-dashoffset:0;stroke-opacity:1"
   d="m 165.4039,169.63418 c -5.10759,-10.17886 -9.51593,-45.31558 1.22148,-67.01518 7.0379,-14.223078 41.54642,-43.655874 64.96214,-45.711224 21.89354,-1.921736 45.7326,14.842528 56.53546,34.058787 9.49881,16.896607 9.78999,62.107037 4.08309,92.400257 -5.3659,28.48356 -17.74818,56.36012 -35.17756,79.47048 -13.30644,17.64358 -35.44257,42.75748 -50.8819,42.40464 -5.67092,-0.12941 -17.14249,-0.82957 -18.84517,-19.38345 l 2.70746,-14.03346 -10.55958,-18.4485 -6.6362,-9.46079 -8.15312,-6.01927 -4.05582,-52.63751 4.79972,-15.62478"
   id="path1030-4"
   sodipodi:nodetypes="csssaasc"
   inkscape:label="path1030-4" /><path
   style="display:inline;fill:#69532c;fill-opacity:0.642086;stroke:none;stroke-width:0.377952;stroke-linecap:round;stroke-linejoin:round;stroke-dasharray:none;stroke-dashoffset:0;stroke-opacity:1"
   d="m 180.77279,228.50444 c 0,0 3.06298,0.6824 4.62153,0.72273 2.96493,0.0766 6.13595,0.28009 8.85047,-0.91973 3.20384,-1.41611 5.683,-4.24314 7.85176,-7.00207 2.23403,-2.84198 4.3719,-6.03013 5.10812,-9.57442 0.57721,-2.77873 -0.23121,-5.68584 -0.68244,-8.48798 -0.45089,-2.79997 -0.72658,-5.74085 -2.01499,-8.265 -1.20029,-2.35154 -2.6623,-5.10564 -5.12903,-6.02642 -3.20062,-1.19472 -6.8334,0.64737 -10.12613,1.55532 -4.31156,1.1889 -12.4355,5.04866 -12.4355,5.04866 l -3.29554,2.2407 -4.12247,11.12735 0.62817,9.44808 z"
   id="path3843-3"
   sodipodi:nodetypes="caaaaaaaac" /><path
   style="display:inline;fill:#dc9846;fill-opacity:1;stroke:none;stroke-width:0.755906;stroke-linecap:round;stroke-linejoin:round;stroke-dasharray:none;stroke-opacity:1"
   d="m 170.02674,232.40514 c 5.47571,-0.99097 12.11388,-12.3156 11.62118,-20.02532 -0.55998,-8.76202 -5.56345,-12.91431 -15.99606,-20.87706 -1.37675,-0.95163 -2.93987,-0.82633 -4.63146,-0.84185 l 3.6396,47.23556 c 1.34451,-2.38705 1.93898,-4.48365 5.36674,-5.49133 z"
   id="path878-1"
   sodipodi:nodetypes="cacccc" /><path
   id="path296-7"
   style="display:inline;fill:#dc9846;fill-opacity:1;stroke:none;stroke-width:0.755906;stroke-linecap:round;stroke-linejoin:round;stroke-dasharray:none;stroke-opacity:1"
   d="m 202.02498,250.6476 c 0,0 1.51231,-5.88005 3.02231,-8.46634 4.87871,-8.35619 13.43506,-14.00692 19.00219,-21.91746 8.04853,-11.43646 16.46716,-23.19855 20.57259,-36.58164 3.13902,-10.2326 3.88778,-21.37202 2.66975,-32.00893 -0.81683,-7.13354 -6.59576,-20.49836 -6.59576,-20.49836 l -8.31623,-19.5961 -4.37981,-4.21354 c 0,0 -7.67572,1.77502 -10.23226,-0.49795 -1.62397,-1.44384 -1.59119,-4.31872 -1.09927,-6.43992 0.6219,-2.681777 2.22416,-7.549602 4.82884,-6.68801 14.37958,4.756546 23.78151,27.39965 28.20568,44.37553 4.6738,17.9338 2.50134,37.86418 -3.1093,55.52513 -5.15569,16.22895 -17.83751,33.08453 -27.09524,43.26058 z"
   sodipodi:nodetypes="caaaacccaassscc" /><path
   id="path1016-6"
   style="display:inline;fill:#dc9846;fill-opacity:1;stroke:none;stroke-width:0.755906;stroke-linecap:round;stroke-linejoin:round;stroke-dasharray:none;stroke-opacity:1"
   d="m 183.96372,126.96525 c 16.56335,2.67956 30.97728,-7.27192 48.41611,-15.38648 l -4.37981,-4.21354 c 0,0 -14.69215,6.72748 -22.57032,7.15847 -5.40671,0.29579 -15.92966,-3.1939 -15.92966,-3.1939 0,0 -9.96591,14.91886 -5.53632,15.63545 z"
   sodipodi:nodetypes="sccacs" /><path
   id="path1365"
   style="display:inline;fill:#ebb46b;fill-opacity:1;stroke:none;stroke-width:0.755906;stroke-linecap:round;stroke-linejoin:round;stroke-dasharray:none;stroke-dashoffset:0;stroke-opacity:1"
   d="m 203.00573,183.05143 c 0,0 -10.62499,-15.92129 -13.75365,-24.86723 -3.48315,-9.95956 -6.19723,-20.7027 -5.28836,-31.21895 0.47623,-5.51069 3.65594,-10.43623 5.53632,-15.63545 5.63955,-15.593252 31.23071,-34.704214 43.12776,-33.60832 27.85645,2.565996 34.02088,31.40448 37.59227,43.20419 3.92748,12.97627 8.32395,43.98235 1.57046,64.33329 -5.18426,15.62221 -20.59935,31.02832 -30.46634,38.78914 L 214.941,241.07753 c -6.6598,3.39499 -11.2193,7.12493 -15.18719,12.299 -5.23434,6.82558 -9.50233,15.7968 -10.50173,23.5945 0,0 -1.69565,5.86473 -1.95064,8.88746 -0.98515,11.67796 8.93411,19.88073 18.84517,19.38345 15.43933,0.35284 37.57546,-24.76106 50.8819,-42.40464 17.42938,-23.11036 29.81166,-50.98692 35.17756,-79.47048 5.7069,-30.29322 5.41572,-75.50365 -4.08309,-92.400257 C 277.32012,71.750304 253.48106,54.98604 231.58752,56.907776 208.1718,58.963126 173.66328,88.395922 166.62538,102.619 c -10.73741,21.6996 -6.32907,56.83632 -1.22148,67.01518 4.2964,8.56221 23.84818,13.82506 37.60183,13.41725"
   sodipodi:nodetypes="caassssccscscsssscsc" /><path
   style="display:inline;fill:#ebc393;fill-opacity:1;stroke:none;stroke-width:0.377952;stroke-linecap:round;stroke-linejoin:round"
   d="m 165.4039,169.63418 -4.79972,15.62478 0.41623,5.40195 4.63146,0.84183 7.86917,6.29349 c 0,0 2.12481,-1.6141 3.29555,-2.24069 3.94563,-2.11179 8.12393,-3.85977 12.4355,-5.04867 3.29272,-0.90795 6.9255,-2.75004 10.12612,-1.55532 2.46674,0.92077 3.92875,3.67488 5.12904,6.02642 1.2884,2.52415 1.56408,5.46503 2.01499,8.265 0.45124,2.80214 1.25964,5.70925 0.68243,8.48798 -0.73622,3.54429 -3.04341,6.60615 -5.10812,9.57442 -1.04021,1.49543 -2.26173,2.8804 -3.62445,4.08666 -1.2823,1.13509 -2.62294,2.32283 -4.2273,2.91541 -2.78354,1.02812 -5.91988,1.37801 -8.85047,0.91973 -4.62154,-0.72273 -7.25127,-3.2024 -7.25127,-3.2024 0,0 -5.66819,5.64911 -8.11632,6.38037 -3.334,0.99588 -5.36674,5.49133 -5.36674,5.49133 l 4.07656,3.00962 c 0,0 3.94336,-3.31073 6.34349,-4.0055 2.1119,-0.61136 4.4409,-0.44463 6.59375,0 3.23617,0.66834 9.10706,3.92794 9.10706,3.92794 0,0 8.96093,-6.4832 12.91519,-10.3262 2.88524,-2.80402 6.08653,-5.56837 7.80712,-9.21123 2.73418,-5.78889 2.59526,-12.55728 3.43783,-18.90803 0.52249,-3.93806 2.83603,-8.35725 0.99945,-11.8762 -2.30758,-4.42137 -12.93471,-7.45544 -12.93471,-7.45544 0,0 -13.91602,0.23239 -20.3392,-2.05082 -6.48665,-2.30578 -17.26264,-11.36643 -17.26264,-11.36643 z"
   id="path1510"
   sodipodi:nodetypes="cccccaaaaaaaaascsccaacaaaacac" /><path
   style="display:inline;fill:#e8bb85;fill-opacity:1;stroke:none;stroke-width:0.377952;stroke-linecap:round;stroke-linejoin:round"
   d="m 168.73656,240.90609 c 0,0 2.89615,1.8 4.07656,3.00965 2.68856,2.75518 4.57087,6.20841 6.6362,9.46079 3.79772,5.9805 10.55958,18.4485 10.55958,18.4485 0,0 2.91758,-7.4893 4.88716,-10.97454 2.04195,-3.61329 7.12892,-10.20287 7.12892,-10.20287 0,0 -3.32599,-0.81005 -4.98899,-1.21508 -1.663,-0.40502 -3.82054,0.0404 -4.98899,-1.21504 -1.69958,-1.82588 0.12631,-5.31746 -1.26615,-7.38897 -1.03547,-1.5404 -3.00961,-2.22873 -4.72284,-2.93206 -1.38689,-0.56939 -2.89514,-0.82888 -4.38421,-0.99588 -2.18433,-0.24499 -6.59375,0 -6.59375,0 l -8.38176,2.50068 z"
   id="path1730"
   sodipodi:nodetypes="caacacaaaaaccc" /><path
   style="display:inline;fill:#000080;fill-opacity:0;stroke:#000000;stroke-width:1.51181;stroke-linecap:round;stroke-linejoin:round;stroke-dasharray:none;stroke-opacity:1"
   d="m 165.65186,191.50276 c 10.43261,7.96275 15.43608,12.11504 15.99606,20.87706 0.4927,7.70972 -6.14547,19.03435 -11.62118,20.02532"
   id="path878"
   sodipodi:nodetypes="cac" /><path
   style="display:inline;fill:#000080;fill-opacity:0;stroke:#000000;stroke-width:1.51181;stroke-linecap:round;stroke-linejoin:round;stroke-dasharray:none;stroke-opacity:1"
   d="m 203.00574,183.05143 c -13.75365,0.40781 -33.30543,-4.85504 -37.60182,-13.41725 -5.10761,-10.17886 -9.51594,-45.31558 1.22147,-67.01518 7.03791,-14.223078 41.54641,-43.655874 64.96215,-45.711228 21.89352,-1.921732 45.73259,14.842532 56.53546,34.058791 9.49882,16.896597 9.78997,62.107037 4.08309,92.400257 -5.36592,28.48356 -17.74817,56.36012 -35.17758,79.47048 -13.30644,17.64358 -35.44256,42.75748 -50.88188,42.40464 -5.67093,-0.12941 -17.14251,-0.82958 -18.84519,-19.38345"
   id="path1030"
   sodipodi:nodetypes="cssssaasc" /><path
   style="display:inline;fill:#000080;fill-opacity:0;stroke:#000000;stroke-width:1.51181;stroke-linecap:round;stroke-linejoin:round;stroke-dasharray:none;stroke-opacity:1"
   d="m 221.49733,93.73935 c 22.00083,13.80714 23.78151,27.39964 28.20568,44.37553 4.67381,17.9338 2.50134,37.86418 -3.10929,55.52513 -5.1557,16.22895 -17.83751,33.08453 -27.09525,43.26055"
   id="path296"
   sodipodi:nodetypes="caac" /><path
   style="display:inline;fill:#000080;fill-opacity:0;stroke:#000000;stroke-width:1.51181;stroke-linecap:round;stroke-linejoin:round;stroke-dasharray:none;stroke-opacity:1"
   d="m 183.96373,126.96525 c 20.67894,1.25328 30.97729,-7.27192 48.4161,-15.38648"
   id="path1016"
   sodipodi:nodetypes="cc" /><path
   style="display:inline;fill:#000080;fill-opacity:0;stroke:#000000;stroke-width:0.377952;stroke-linecap:round;stroke-linejoin:round;stroke-dasharray:none;stroke-opacity:1"
   d="m 189.50005,111.3298 c 1.98021,-15.933097 31.23072,-34.704214 43.12776,-33.60832 27.85646,2.565987 34.02087,31.40448 37.59226,43.20419 3.92748,12.97627 8.32395,43.98235 1.57046,64.33329 -5.18426,15.62221 -20.59932,31.02832 -30.46632,38.78914"
   id="path1033"
   sodipodi:nodetypes="cssac" /><path
   style="display:inline;fill:#000080;fill-opacity:0;stroke:#000000;stroke-width:0.377952;stroke-linecap:round;stroke-linejoin:round;stroke-dasharray:none;stroke-opacity:1"
   d="m 189.25209,276.97103 c 0.9994,-7.7977 5.26738,-16.76892 10.50174,-23.5945 3.96789,-5.17407 8.52737,-8.90401 15.18719,-12.29903"
   id="path2772"
   sodipodi:nodetypes="cac" /><path
   style="display:inline;fill:none;fill-opacity:1;stroke:#000000;stroke-width:0.377952;stroke-linecap:round;stroke-linejoin:round;stroke-dasharray:none;stroke-dashoffset:0;stroke-opacity:1"
   d="m 176.81658,195.55553 c 0,0 8.12394,-3.85976 12.4355,-5.04866 3.29273,-0.90795 6.92551,-2.75004 10.12613,-1.55532 2.46673,0.92078 3.92874,3.67488 5.12903,6.02642 1.28841,2.52415 1.56408,5.46503 2.01499,8.265 0.45125,2.80214 1.25965,5.70925 0.68244,8.48798 -0.73622,3.54429 -2.87409,6.73244 -5.10812,9.57442 -2.16876,2.75893 -4.64792,5.58596 -7.85176,7.00207 -2.71452,1.19982 -5.88554,0.99622 -8.85047,0.91973 -1.55855,-0.0404 -4.62153,-0.72273 -4.62153,-0.72273"
   id="path3843"
   sodipodi:nodetypes="caaaaaaaac" /><path
   style="display:inline;fill:none;fill-opacity:1;stroke:#000000;stroke-width:0.377952;stroke-linecap:round;stroke-linejoin:round;stroke-opacity:1"
   d="m 197.03599,249.43254 c 0,0 -3.82054,0.0404 -4.98899,-1.21504 -1.69958,-1.82588 0.2751,-5.42654 -1.26615,-7.38897 -2.04579,-2.60486 -5.87088,-3.2596 -9.10705,-3.92794 -2.15286,-0.44463 -6.59375,0 -6.59375,0"
   id="path1239"
   sodipodi:nodetypes="caaac" /><text
   xml:space="preserve"
   style="font-size:48.0497px;clip-rule:evenodd;fill:#000000;fill-opacity:1;fill-rule:evenodd;stroke-width:0.563078;stroke-linejoin:round;stroke-miterlimit:2"
   x="28.00016"
   y="351.79443"
   id="text228-5"><tspan
     sodipodi:role="line"
     id="tspan226-4"
     x="28.00016"
     y="351.79443"
     style="font-style:normal;font-variant:normal;font-weight:bold;font-stretch:normal;font-size:48.0497px;font-family:Arial;-inkscape-font-specification:'Arial Bold';fill:#000000;fill-opacity:1;stroke-width:0.563078">A .NET MAUI APP</tspan></text></svg>
