<?xml version="1.0" encoding="UTF-8" standalone="no"?>
<!-- Created with Inkscape (http://www.inkscape.org/) -->

<svg
   width="424.24063mm"
   height="600mm"
   viewBox="0 0 424.24062 600"
   version="1.1"
   id="svg5"
   inkscape:version="1.2.2 (732a01da63, 2022-12-09)"
   sodipodi:docname="mimi.svg"
   xmlns:inkscape="http://www.inkscape.org/namespaces/inkscape"
   xmlns:sodipodi="http://sodipodi.sourceforge.net/DTD/sodipodi-0.dtd"
   xmlns="http://www.w3.org/2000/svg"
   xmlns:svg="http://www.w3.org/2000/svg">
  <sodipodi:namedview
     id="namedview7"
     pagecolor="#ffffff"
     bordercolor="#000000"
     borderopacity="0.25"
     inkscape:showpageshadow="2"
     inkscape:pageopacity="0.0"
     inkscape:pagecheckerboard="0"
     inkscape:deskcolor="#d1d1d1"
     inkscape:document-units="mm"
     showgrid="false"
     inkscape:zoom="0.18462928"
     inkscape:cx="-1126.5819"
     inkscape:cy="1435.3086"
     inkscape:window-width="1920"
     inkscape:window-height="1009"
     inkscape:window-x="1917"
     inkscape:window-y="-8"
     inkscape:window-maximized="1"
     inkscape:current-layer="layer3" />
  <defs
     id="defs2" />
  <g
     inkscape:label="freehand"
     inkscape:groupmode="layer"
     id="layer1"
     style="display:none">
    <path
       style="fill:none;fill-opacity:1;stroke:#000000;stroke-width:1;stroke-linecap:round;stroke-linejoin:round;stroke-dasharray:none;stroke-dashoffset:0;stroke-opacity:1"
       d="M 39.050662,49.440288 181.99759,30.452351"
       id="path240" />
    <path
       style="fill:none;fill-opacity:1;stroke:#000000;stroke-width:1;stroke-linecap:round;stroke-linejoin:round;stroke-opacity:1"
       d="m 54.164161,47.43273 -0.06645,141.73012"
       id="path1390" />
    <path
       style="fill:none;fill-opacity:1;stroke:#000000;stroke-width:1;stroke-linecap:round;stroke-linejoin:round;stroke-opacity:1"
       d="m 54.14894,79.890987 84.85709,-2.14792"
       id="path1392" />
    <path
       style="fill:none;fill-opacity:1;stroke:#000000;stroke-width:1;stroke-linecap:round;stroke-linejoin:round;stroke-opacity:1"
       d="m 54.130932,144.37998 89.532518,-7.88179"
       id="path1394" />
    <path
       style="fill:none;fill-opacity:1;stroke:#000000;stroke-width:1;stroke-linecap:round;stroke-linejoin:round;stroke-opacity:1"
       d="M 20.420989,195.61158 160.14355,168.74186"
       id="path1396" />
    <path
       style="fill:none;fill-opacity:1;stroke:#000000;stroke-width:1;stroke-linecap:round;stroke-linejoin:round;stroke-opacity:1"
       d="m 156.95783,33.778434 1.75266,199.450756"
       id="path1398" />
    <path
       style="fill:none;stroke:#000000;stroke-width:1;stroke-linecap:round;stroke-linejoin:round"
       id="path344"
       d="m 33.651372,58.89272 c 8.55503,0.179181 3.753456,0.536048 11.625479,-0.971728 1.179336,-0.225885 2.422816,-0.198191 3.549881,-0.61242 0.742241,-0.272796 1.176014,-1.121929 1.917424,-1.396974 1.083289,-0.401878 5.278631,0.145879 5.798498,0.191868 1.255532,-0.01661 2.530091,0.168527 3.7666,-0.04984 9.533115,-1.683579 -1.969675,-0.218192 4.945875,-2.96808 3.333263,-1.325433 13.690904,1.43085 14.103056,1.457901 3.878638,0.25458 7.770749,-0.223636 11.65612,-0.335457 9.961515,-3.273816 4.618533,-2.152978 12.116345,-2.963264 1.27803,-0.138118 2.57998,-0.161915 3.82733,-0.472623 1.63804,-0.408024 3.1097,-1.430329 4.78047,-1.671532 9.38423,-0.09001 4.90556,0.425829 13.45649,-1.357873 0.47184,-0.122531 1.42675,0.119761 1.41551,-0.367594 -0.0347,-1.504815 -0.83031,-2.914533 -1.52198,-4.25142 -0.23048,-0.445495 -1.64021,-0.560607 -1.50272,-0.07823 0.3589,1.259133 0.6245,2.82185 1.72721,3.527708 1.14347,0.731938 2.71261,0.121618 4.0689,0.182427 -1.94449,5.29e-4 3.46036,-0.561202 2.96255,-1.560107 -0.63956,-1.283372 -1.18201,-3.547777 -2.61015,-3.419346 -1.33993,0.120497 1.09955,2.530205 2.06367,3.468489 1.04564,1.017617 4.45014,0.754139 5.43395,0.768123 0.87432,-0.57861 2.86041,-1.875563 2.93764,-2.22336 0.23823,-1.072862 -0.83379,-2.038996 -1.36435,-3.001436 -0.0447,-0.08115 -0.25025,-0.0646 -0.27692,0.02413 -0.4135,1.375717 -1.13746,2.765044 -0.99094,4.194069 0.055,0.536644 0.99103,0.426519 1.48654,0.639778 -0.90298,-1.282842 4.72683,0.08374 4.74332,-1.58301 0.0128,-1.290563 -0.13737,-3.600264 -1.42799,-3.598928 -1.21411,0.0013 0.32828,2.407031 0.55474,3.599831 0.0256,0.135075 0.0626,0.33524 0.19746,0.36213 1.05371,0.210145 2.13852,0.211322 3.20778,0.316984 1.39578,-0.189347 2.82955,-0.193318 4.18737,-0.568042 2.51698,-0.694624 0.75738,-4.00032 -0.56418,-5.096441 -0.67388,-0.55893 -2.32104,-0.181497 -2.54069,0.666014 -1.2071,4.65745 2.78456,4.236236 5.23729,4.697807 0.56858,-0.306822 1.42573,-0.338212 1.70574,-0.920459 0.48713,-1.012915 0.96452,-2.412754 0.34977,-3.353697 -0.6477,-0.991365 -2.55272,-2.105851 -3.33703,-1.218626 -4.03938,4.569418 1.86135,4.660778 3.16897,4.698907 0.5643,0.01646 1.12318,-0.115271 1.68477,-0.172908 0.58962,0.01958 1.18191,-7.93e-4 1.76885,0.05876 0.28571,0.02895 0.5499,0.190735 0.83671,0.205274 1.21012,0.06135 3.95804,-0.268645 4.32447,-1.622568 0.74502,-2.752778 -1.23592,-2.991329 -2.6255,-3.360433 -0.59306,1.172226 -1.18613,2.344452 -1.77919,3.516675 0.21068,0.190619 2.90643,-2.788777 2.69575,-2.979396 v 0 c -0.83265,1.152321 -1.66531,2.304645 -2.49797,3.456966 0.86543,-0.889156 0.24132,-0.147904 0.74923,-2.808798 0.47989,-0.692113 1.76694,-0.553688 2.1709,-1.292698 0.29059,-0.531607 -1.13832,0.498019 -1.744,0.511722 -1.13681,0.02572 -2.25886,-0.263747 -3.38829,-0.395621 -0.64107,0.01514 -1.28213,0.03028 -1.92319,0.04542 -0.60609,-0.02299 -1.23438,-0.233161 -1.81826,-0.06899 -0.18587,0.05226 0.003,0.386159 0.004,0.579244 0.006,1.385636 0.70228,2.953462 0.0155,4.156916 -0.34292,0.600858 -1.62876,-0.419433 -1.76092,-1.098513 -0.51709,-2.656818 2.46782,-3.942125 -0.10446,-2.561225 -1.936,-0.85554 -0.006,-0.221543 -2.15304,3.781608 -0.15334,0.285882 -0.82697,0.834147 -0.82906,0.509744 -0.009,-1.339649 0.55844,-2.620762 0.80699,-3.93718 0.18944,-1.003308 0.0921,-0.633 -1.07368,-0.776949 -1.85449,-0.119719 -5.82168,-0.776814 -7.31721,0.990581 -0.82822,0.978781 0.80993,3.242384 -0.32838,3.832479 -7.3399,3.804947 -0.006,-4.00499 0.11863,-3.889036 0.24929,0.231381 0.13099,0.667501 0.19649,1.001252 -0.38654,-0.268232 -0.8131,-1.122955 -1.15962,-0.804696 -1.25936,1.156669 -1.81657,2.897603 -2.7079,4.356846 -0.0508,0.08314 0.19167,-0.129151 0.18489,-0.226332 -0.0589,-0.845196 -0.77306,-1.765398 -0.3759,-2.513785 0.49035,-0.92396 3.09274,-0.786691 2.62361,-1.721602 -0.53935,-1.074854 -2.40046,-0.150402 -3.6007,-0.225605 -1.05712,0.215535 -2.11829,0.412062 -3.17136,0.646605 -0.76033,0.169341 -2.17507,-0.208669 -2.26761,0.564777 -0.16453,1.37519 1.02917,2.585728 1.74913,3.768889 0.6436,1.057656 -1.01783,-2.25733 -1.51839,-3.389707 -0.64254,-1.453541 0.17673,-0.634407 -3.03366,-0.312414 -1.21934,0.27052 -2.71709,-0.0098 -3.65801,0.811564 -4.60772,4.022265 -3.06454,4.309684 -0.56032,4.600027 1.40946,0.163417 3.18776,1.350029 4.23824,0.396195 1.2479,-1.133096 1.82969,-3.639502 0.82065,-4.989684 -0.9813,-1.313058 -3.26388,-0.308817 -4.89582,-0.463227 -2.33468,0.127865 -4.70247,-0.02857 -7.00403,0.383593 -2.28129,0.408527 -4.39032,1.505457 -6.64061,2.059855 -7.07945,1.744146 -2.53394,0.307739 -8.26041,0.686382 -10.528594,0.696166 4.06207,1.461595 -13.378765,-0.337503 -3.992124,0.0483 -8.029702,-0.457766 -11.976365,0.144905 -6.840886,1.04463 -8.027342,3.086158 -13.462314,4.556178 -0.635683,0.171934 -1.331453,0.01251 -1.966836,0.18556 -0.670597,0.182623 -1.264312,0.577691 -1.896467,0.866539 -1.127829,0.226158 -2.255658,0.452319 -3.383487,0.678477 -1.117248,-0.157068 -5.682818,-0.961599 -7.122829,-0.622933 -0.762071,0.179226 -1.226169,1.052547 -1.980322,1.262621 -1.094356,0.304837 -2.269233,0.125659 -3.399877,0.236053 -6.389489,0.623875 -4.63559,0.429374 -10.848215,1.881892 -0.359387,0.125129 1.410224,5.207643 1.76961,5.082513 z" />
    <path
       style="fill:none;stroke:#000000;stroke-width:1;stroke-linecap:round;stroke-linejoin:round"
       id="path346"
       d="m 51.118788,62.249547 c 0.168508,1.521862 0.506754,3.034421 0.505526,4.565583 -0.0054,6.762875 -0.865071,1.935697 -0.44564,6.513444 0.263525,2.876198 0.318121,-0.134427 1.058576,3.517334 0.128609,0.634264 0.01849,1.294214 0.02775,1.941322 0.504504,0.843581 1.442397,1.550389 1.513514,2.530745 0.06598,0.909582 -0.904026,1.604343 -1.149834,2.482566 -0.268531,0.959409 -0.434972,1.970755 -0.37496,2.965223 0.07515,1.245277 0.54292,2.435743 0.774862,3.661534 0.597053,3.155413 0.523184,3.063079 0.794014,6.02978 1.27367,4.740802 0.129355,0.271902 1.077955,4.540962 0.155361,0.69919 0.441997,1.3745 0.508754,2.08763 0.09632,1.02897 -0.221408,2.08606 -0.0231,3.10033 3.422576,17.5052 -0.29999,-11.431455 2.213623,10.68697 4.58868,9.20595 1.451528,1.72031 3.225996,8.41754 0.0523,0.19737 -0.09593,-0.4944 0.07366,-0.60812 0.271359,-0.18196 0.951365,-0.42121 0.9755,-0.0954 0.607412,8.19968 -2.680467,-0.14005 0.928439,7.20974 -6.218616,-2.15057 1.787647,3.98663 0.436446,4.03238 -0.420224,0.0142 -0.419801,-0.98679 -0.837962,-0.94284 -0.398767,0.0419 -0.456787,0.68923 -0.518472,1.08542 -0.394171,2.53163 -0.07922,3.13799 0.377571,5.52626 0.505296,1.7853 0.884338,2.13835 0.470202,3.8792 -0.681554,2.86496 -0.752732,0.75754 -1.183892,3.68104 -0.109185,0.74032 0.06247,3.3962 0.08703,3.91391 1.289717,3.69202 0.851562,1.37981 0.456523,6.24948 -0.08938,1.1018 -0.01378,2.22218 -0.213839,3.30935 -0.101401,0.55105 -0.569899,0.9883 -0.678161,1.53805 -0.08266,0.41972 0.111371,0.84976 0.123716,1.27736 0.02381,0.82528 -0.01021,1.65122 -0.01535,2.47683 0.789948,2.644 0.873848,2.32822 1.004816,5.02722 0.02196,0.45252 0.02893,0.91282 -0.055,1.35803 -0.01413,0.0749 -0.199763,-0.0786 -0.172746,-0.14986 0.111522,-0.29425 0.637178,-1.07815 0.526516,-0.78357 -0.357119,0.95063 -0.848051,1.84547 -1.272075,2.7682 0.203753,0.90496 0.428967,1.80535 0.611259,2.71488 0.161449,0.80553 0.07233,1.68414 0.41964,2.42867 0.867452,1.85955 3.973475,-0.58936 3.805722,-1.49414 -0.18991,-1.02427 -2.281481,-0.10553 -3.072292,0.57257 -0.841975,0.72197 -0.806773,2.06634 -1.210159,3.09952 1.212032,2.9998 0.40671,1.70956 2.290188,3.94644 0.220213,0.30829 4.580049,-2.80601 4.359834,-3.1143 v 0 c -1.387441,-0.0752 -0.815549,0.23946 -1.280221,-1.48181 -0.454663,0.21036 -0.863674,0.60551 -1.363988,0.63107 -0.85901,0.0439 -3.203961,0.12023 -2.544059,-0.43145 1.193102,-0.99744 3.247676,-0.29503 4.506031,-1.20877 0.464275,-0.33713 -0.54439,-1.03171 -0.641913,-1.59713 -0.69237,-4.01419 0.987266,-1.65356 -1.651421,-4.26694 -0.295476,0.39183 -1.309751,0.92723 -0.886428,1.17549 0.480073,0.28155 1.089422,-0.41746 1.43473,-0.85393 0.375504,-0.47464 0.419766,-1.13599 0.597328,-1.71457 0.618048,-2.01393 1.017519,-2.98769 0.445307,-5.19707 -0.192188,-0.74207 -0.725813,-1.3504 -1.088721,-2.0256 -0.08408,-0.1279 -0.23337,-0.2318 -0.25224,-0.38369 -0.288605,-2.32321 0.572376,-0.87402 1.329325,-3.86292 0.319127,-1.26011 0.327647,-2.58584 0.329554,-3.88573 0.0065,-4.43308 -0.107148,-3.91526 -1.358971,-7.55832 -0.964319,-1.41365 -0.205044,0.14753 0.467145,-1.0824 0.343181,-0.62793 0.313299,-1.39669 0.490805,-2.08992 0.252548,-0.98627 0.66216,-1.93905 0.799179,-2.94789 0.412597,-3.03783 0.03703,-2.92993 -1.145794,-5.57075 -2.066813,-3.51814 0.337707,-0.42709 -1.548817,-0.70005 -0.305832,-0.0443 0.453961,-0.41994 0.667718,-0.6431 0.643572,-0.67187 1.504349,-1.20091 1.903576,-2.04127 0.999019,-2.10292 0.103619,-4.28816 -0.335835,-6.33216 -0.545957,-0.94427 -1.091914,-1.88854 -1.637872,-2.8328 -0.573463,0.15395 -1.414798,0.97097 -1.720384,0.46187 -0.296272,-0.49357 0.989851,-0.62588 1.354609,-1.07124 0.603668,-0.73706 1.386392,-1.48195 1.510199,-2.42658 0.422111,-3.22067 -2.693231,-6.36702 -2.166549,-9.50073 -0.878236,-1.77547 -1.898229,-3.4876 -2.63471,-5.3264 -0.174633,-0.43601 -1.635236,-5.73513 -1.843855,-6.89637 -0.13585,-0.75619 -0.03447,-1.55162 -0.237418,-2.29263 -1.313736,-4.796648 -0.917607,0.87403 -0.978141,-4.466184 -2.094325,-11.478156 0.672317,4.884754 -0.457353,-5.777158 -0.11066,-1.044427 -0.542544,-2.032955 -0.70987,-3.069812 -0.157469,-0.975771 -0.233023,-1.965606 -0.26217,-2.953568 -0.366614,-12.427466 0.662027,6.872846 -0.104661,-6.309445 -1.507371,-8.198148 0.817525,1.158571 -1.60142,-3.058869 -0.151984,-0.264988 0.146831,-0.594831 0.257898,-0.879406 0.352901,-0.904205 0.971878,-1.725432 1.132355,-2.682708 0.55457,-3.308144 -0.163523,-6.130777 -0.666313,-9.376204 -0.041,-0.391086 -5.57181,0.188762 -5.530808,0.579851 z" />
    <path
       style="fill:none;stroke:#000000;stroke-width:1;stroke-linecap:round;stroke-linejoin:round"
       id="path348"
       d="m 62.036631,98.234343 c 4.877316,-1.425628 8.071953,-2.462811 13.134504,-3.486552 2.0276,-0.41002 4.098213,-0.577586 6.131319,-0.959369 2.113156,-0.396819 6.849232,-1.672545 9.051875,-1.996075 1.975659,-0.29019 3.974092,-0.395457 5.961136,-0.593188 2.178066,-0.321257 4.396715,-0.436192 6.534205,-0.963776 1.59431,-0.393515 3.06969,-1.168382 4.59265,-1.782607 0.43888,-0.177001 1.48073,-0.156789 1.29111,-0.590359 -0.875,-2.000663 -3.29444,-5.295056 -6.17181,-4.172112 -0.49596,0.193556 -0.26628,1.030944 -0.39942,1.546419 1.46872,1.244653 2.62603,3.00083 4.40614,3.733958 1.11972,0.461151 6.73127,-0.183213 8.10822,-0.669628 1.1654,-0.411684 -0.28562,-0.940404 -0.29045,-0.960345 -0.28648,-1.183037 -0.29917,-2.416001 -0.44875,-3.624003 0.46016,0.185282 0.92032,0.370564 1.38049,0.555847 0.71507,1.174517 0.98983,2.777974 2.14522,3.523549 1.40493,0.906589 3.24915,0.831238 4.90947,1.028824 6.93891,0.825751 5.26541,0.975741 10.00736,-0.704876 0.38781,0.109119 1.93096,-5.375376 1.54315,-5.484493 v 0 c -2.11999,-0.07875 -4.24379,-0.08671 -6.35996,-0.236238 -5.11005,-0.361074 -13.08926,-3.043624 -13.62834,5.190156 -0.0355,0.542685 1.085,0.07649 1.6275,0.114737 0.61526,-1.288354 1.67031,-2.448161 1.84577,-3.86506 0.0592,-0.477904 -0.81155,-0.573937 -1.2855,-0.659201 -1.16859,-0.21023 -2.37394,-0.09707 -3.55574,-0.211741 -1.38023,-0.133927 -2.77751,-0.85784 -4.12579,-0.533609 -3.85709,0.927536 -3.36666,3.176286 -3.95619,6.205267 0.71258,0.535208 1.96523,1.572152 2.78624,-0.21823 1.19688,-2.610041 0.67096,-5.337538 -2.0877,-5.220595 -1.66491,0.07058 -3.27151,0.651394 -4.92512,0.857478 -2.208758,0.275272 -4.434557,0.390218 -6.651837,0.585327 -1.710848,0.654891 -3.319962,1.699284 -5.132543,1.964679 -1.608796,0.235559 -3.226536,-0.54756 -4.851868,-0.502777 -1.760083,0.0485 -3.473056,0.597554 -5.224288,0.780405 -2.362753,0.246702 -4.7942,-0.02793 -7.108711,0.507322 -5.598277,1.294649 -8.236691,3.411847 -12.899229,6.306005 -0.320662,0.257874 3.326225,4.792734 3.646887,4.534861 z" />
    <path
       style="fill:none;stroke:#000000;stroke-width:1;stroke-linecap:round;stroke-linejoin:round"
       id="path350"
       d="m 69.297105,140.95703 c 3.253882,0.19249 6.504731,0.70886 9.761651,0.57745 5.70698,-0.23027 12.395573,-1.85619 18.091705,-2.85192 1.629302,-0.28481 3.275239,-0.46672 4.906699,-0.73893 0.93105,-0.15534 1.84001,-0.6386 2.77912,-0.54342 2.05204,0.20797 4.01262,0.95672 6.01893,1.43507 9.8031,2.6435 7.10147,3.27849 17.96062,-0.28328 1.41462,-0.46399 3.09011,-0.90807 3.91687,-2.14619 3.28631,-4.92148 -1.75805,-5.43231 -4.96029,-5.35416 -0.7969,0.0194 -1.35063,0.84705 -2.02594,1.27057 1.46745,6.09077 -0.37207,4.80278 6.8474,4.75719 1.29523,-0.008 2.65141,0.12147 3.87359,-0.30744 0.5956,-0.20902 1.41054,-0.87811 1.19293,-1.47062 -1.86316,-5.07309 -2.305,-4.2839 -5.32617,-3.52778 0.006,6.3119 -1.48694,4.11933 4.75202,4.85576 4.44089,0.52419 8.35762,2.066 12.70102,0.21185 0.45106,-0.19256 0.20587,-0.95904 0.3088,-1.43855 0.26714,-0.0873 -0.96799,-3.86528 -1.23513,-3.77794 v 0 c -2.14772,-1.11051 -3.24591,-1.7774 -6.58231,-1.65197 -1.38737,0.0522 -2.57417,1.04103 -3.86289,1.55745 -0.88816,0.35589 -2.02126,0.35412 -2.66774,1.05949 -0.79032,0.8623 -0.86207,2.17474 -1.29311,3.26211 2.40899,0.51793 2.78329,1.05896 1.00073,-4.16096 -0.82657,-2.42045 -3.92843,0.7865 -4.17985,0.85406 -3.37206,0.90612 1.49116,-8.86377 -2.70624,3.82718 0.32643,-0.15289 0.94567,-0.0998 0.97928,-0.45865 0.0624,-0.66585 -0.73426,-1.18757 -0.76251,-1.85573 -0.0481,-1.13658 1.30028,-2.52185 0.54162,-3.36952 -0.72045,-0.80499 -2.18434,0.0667 -3.21874,0.37827 -9.53192,2.87078 -0.66155,2.77925 -12.81806,1.11502 -19.14363,-1.28848 5.91091,0.18009 -13.2613,-0.23877 -1.971508,-0.0431 -3.92616,-0.5644 -5.896363,-0.4808 -2.440186,0.10355 -4.820613,0.81957 -7.25314,1.03878 -20.640492,1.86001 -0.359478,-1.02458 -19.251186,1.96002 -0.459364,0.11794 1.208619,6.61431 1.667984,6.49636 z" />
    <path
       style="fill:none;stroke:#000000;stroke-width:1;stroke-linecap:round;stroke-linejoin:round"
       id="path352"
       d="m 19.164763,201.98534 c 6.576787,0.58268 9.544849,1.11623 16.647506,0.28459 3.958487,-0.4635 7.800745,-1.67254 11.747963,-2.22383 3.622884,-0.506 7.334962,-0.28672 10.93347,-0.94404 19.07858,-3.48496 0.294081,-1.96693 11.222844,-2.67943 2.35979,0.22066 7.17296,0.85757 9.426937,0.2269 1.615914,-0.45215 4.967335,-3.74368 6.406351,-4.49284 3.863192,-2.0112 5.898383,-1.63591 10.357091,-1.97838 5.146005,-2.05904 10.534185,0.18142 15.727025,-0.5613 2.90102,-0.41493 11.68366,-4.56614 13.81877,-5.71307 5.48865,-2.94837 4.74312,-1.45065 4.81172,-5.67014 9.68069,1.17543 -10.57834,-3.0564 -8.79098,-0.72186 1.20616,1.5754 3.16957,2.85169 5.14913,2.98611 2.3568,0.16004 4.59568,-1.19523 6.74352,-2.17854 4.92061,-2.25271 4.47105,-2.10459 6.49608,-5.11828 -1.98208,-0.75829 -3.83,-2.11619 -5.94624,-2.27486 -0.82713,-0.062 -2.30034,1.01292 -1.82437,1.69222 1.13609,1.62143 3.14651,2.8496 5.11976,3.01094 1.58717,0.12978 9.26435,-2.77546 10.33896,-5.02367 0.63095,-1.32002 -0.33449,-2.90694 -0.50174,-4.36042 -0.84999,3.93887 -8.34517,0.12595 -10.16172,3.17443 -0.70603,1.18484 -0.80335,3.52766 0.44519,4.11373 4.07904,1.91471 7.10069,-0.7996 9.52784,-3.11446 0.36829,-0.35125 0.62959,-0.79978 0.94438,-1.19966 -1.47267,-0.74421 -2.94535,-1.48842 -4.41802,-2.23263 -0.23123,0.26517 3.51881,3.53522 3.75004,3.27005 v 0 c -0.83745,-1.31724 -1.6749,-2.63449 -2.51235,-3.95174 -1.12523,0.36075 -3.96615,1.22979 -4.28991,1.74112 -0.44197,0.69803 0.72519,1.52149 0.80657,2.34365 0.11918,1.20398 -1.22267,2.95214 -0.21594,3.62316 2.52585,1.68356 2.64931,-3.92247 2.68984,-4.29061 -0.007,-1.2295 1.11177,-3.21017 -0.0209,-3.6885 -1.18097,-0.49873 -8.39452,4.29321 -8.67366,4.84687 -0.68233,1.35336 -0.13307,3.14958 0.52064,4.517 0.21275,0.44503 1.32973,-0.0889 1.36092,-0.58118 0.0972,-1.53415 -0.69295,-2.99534 -1.03943,-4.49301 -3.53343,0.40887 -10.54187,1.91713 -12.10812,6.0896 -0.71801,1.9128 -0.0867,4.3123 0.98954,6.04896 0.41192,0.66468 1.74658,-0.52989 1.96559,-1.28057 0.36823,-1.26219 -0.29913,-2.61255 -0.4487,-3.91882 0.41887,-3.04076 1.02691,-3.69241 -5.52943,-0.31132 -2.20352,1.13635 -3.53204,3.66567 -5.81043,4.64329 -1.87292,0.80365 -4.06717,0.27638 -6.09641,0.46575 -2.40329,0.22427 -4.79975,0.51665 -7.19962,0.77505 -2.676881,0.28822 -5.35375,0.57655 -8.030625,0.86483 -2.141082,0.8396 -4.261985,1.7326 -6.423241,2.51881 -1.837942,0.66859 -3.809672,0.99181 -5.570009,1.84401 -1.101823,0.53341 -1.87334,1.58602 -2.898166,2.25556 -0.425691,0.27811 -0.938162,0.39395 -1.417415,0.56388 -2.08442,0.73904 -1.934038,-0.15302 -5.27965,-1.30294 -2.823236,-0.0398 -5.648663,-10e-4 -8.469704,-0.11937 -3.153552,-0.13214 -6.313458,-1.00255 -9.447881,-0.63142 -3.455038,0.40909 -6.621381,2.17393 -10.016062,2.93602 -3.776747,0.84785 -7.645815,1.21549 -11.458252,1.88481 -7.716556,1.35475 -7.795582,1.45709 -14.705375,3.05169 -0.373625,0.0959 0.98304,5.37979 1.356665,5.28386 z" />
    <path
       style="fill:none;stroke:#000000;stroke-width:1;stroke-linecap:round;stroke-linejoin:round"
       id="path354"
       d="m 135.82756,49.013075 c 0.59966,3.02941 1.35667,7.491762 2.50694,10.277372 0.62736,1.51929 1.63628,2.851922 2.49885,4.251134 0.37066,0.601258 0.53418,1.985928 1.19894,1.747181 0.89622,-0.321873 1.54752,-1.723072 1.18017,-2.601632 -0.26943,-0.644371 -1.25884,0.605433 -1.88826,0.908148 0.076,9.146707 -0.25127,-0.327004 0.96109,9.771608 0.20479,1.705874 -0.2376,3.520593 0.32459,5.144135 0.29775,0.859877 1.56047,1.024776 2.07211,1.777288 0.1353,0.199006 -0.57603,0.08575 -0.64967,0.314851 -0.48468,1.507829 -0.63209,3.103915 -0.94813,4.655871 -0.63068,3.536161 -2.53534,12.03625 -1.84304,15.965549 0.20342,1.15456 0.95943,2.72064 2.12914,2.79936 2.04989,0.13796 4.08504,-1.03973 5.73019,-2.27041 0.51535,-0.38552 0.52455,-1.930359 -0.11903,-1.92711 -1.91468,0.0097 -3.60079,1.30331 -5.40119,1.95496 -1.18641,4.60279 -2.37804,7.35933 -1.64763,12.25339 0.20796,1.39346 0.91718,2.68984 1.65971,3.88718 0.50533,0.81484 1.20623,1.54107 2.02053,2.04725 0.52444,0.326 1.59175,-0.23275 1.82091,0.34065 0.19356,0.48434 -0.96067,0.40662 -1.44101,0.60993 -1.50329,3.78923 -2.81377,6.18917 -2.82175,10.51148 -0.003,1.5952 0.4749,3.17535 1.01217,4.67736 0.28876,0.80727 0.99642,1.39858 1.4265,2.14027 0.15835,0.27309 0.74504,2.02577 0.81058,2.21555 -0.66448,2.57931 -1.43107,5.05863 -1.49612,7.76561 -0.0321,1.33535 0.1584,2.67726 0.43996,3.98298 0.17139,0.79481 0.74488,1.46755 0.90716,2.26427 0.0827,0.40598 -0.16312,0.8144 -0.19596,1.22741 -0.0302,0.3796 0.005,0.76157 0.008,1.14236 -0.0185,0.67851 -0.0369,1.35703 -0.0554,2.03555 -0.36287,1.10807 -0.97655,2.16364 -1.08862,3.32423 -0.36715,3.80226 0.77961,1.96104 1.2025,4.93893 0.0884,0.62274 -0.19644,1.24946 -0.18103,1.87826 0.0239,0.97467 0.19894,1.93976 0.2984,2.90964 -0.50339,1.29148 -1.36866,2.49558 -1.51017,3.87446 -0.29125,2.83805 0.97489,5.49797 1.9065,8.04586 0.24335,0.66555 0.37539,1.38189 0.72401,1.99885 0.49365,0.87361 1.23325,-0.82916 -0.0184,1.05478 -0.0501,0.86423 -0.39378,6.6822 -0.38506,7.09864 0.0237,1.13224 0.22964,2.25339 0.36101,3.37823 0.0709,0.60678 0.0456,1.23898 0.24566,1.81619 0.9077,2.61853 0.98557,-0.07 0.66729,2.44794 -0.13931,0.59813 -0.27861,1.19626 -0.41792,1.79439 0.0257,0.65021 0.18073,1.30818 0.0772,1.95062 -0.0897,0.55724 -0.80573,1.02548 -0.64369,1.56614 0.18441,0.61529 1.27566,0.62323 1.48215,1.23145 0.13179,0.38818 -0.48495,0.66108 -0.72743,0.99162 0.19892,0.41068 0.39783,0.82135 0.59675,1.23204 0.1374,0.42775 0.3966,0.83424 0.41221,1.28324 0.0241,0.69316 -0.23784,1.36845 -0.29598,2.05959 -0.246,2.92472 -0.13247,4.69502 4.07501,4.32028 0.67418,-0.06 0.96526,-0.94909 1.44789,-1.42363 -0.55709,-2.02467 -0.27878,-2.61647 -4.13018,-0.76228 -0.60571,0.29161 -0.79267,1.13189 -0.92861,1.79025 -0.12463,0.60363 -0.30703,1.46132 0.17897,1.84041 1.01887,0.79473 2.46179,0.78635 3.69268,1.17953 0.24261,-0.11946 -1.44687,-3.55044 -1.68948,-3.43098 v 0 c 0.62807,0.4057 1.20123,0.91279 1.88422,1.2171 0.3544,0.1579 1.4435,-0.79242 0.69291,-1.30306 -1.1347,-0.77195 -2.6389,-0.78819 -3.88467,-1.36398 -0.25325,-0.11705 -0.33806,-0.44391 -0.50709,-0.66586 1.86783,0.25111 0.51774,-0.0111 3.79685,1.61475 0.27885,0.0586 0.23784,-0.55084 0.19429,-0.83243 -0.1096,-0.7086 -0.6345,-1.33647 -0.64067,-2.05347 -0.008,-0.92393 0.56307,-1.78298 0.59973,-2.70621 0.0282,-0.70938 -0.27286,-1.39341 -0.40929,-2.09012 -0.13812,-0.26667 -0.52728,-0.84568 -0.51185,-1.2477 0.009,-0.24702 0.14166,-0.48097 0.14055,-0.72817 -0.002,-0.45649 -0.16866,-0.90515 -0.14995,-1.36126 0.2245,-5.4745 0.51151,1.6863 0.15386,-4.18935 0.10447,-0.59889 0.26742,-1.19047 0.31342,-1.79665 0.0728,-0.95945 -0.32719,-1.9053 -0.33179,-2.8675 -0.005,-1.04064 0.27062,-2.07578 0.21187,-3.11478 -0.0668,-1.18215 -0.39071,-2.33563 -0.58607,-3.50344 -0.025,-1.0573 -0.0499,-2.1146 -0.0749,-3.1719 -0.10689,-0.65648 -0.32679,-1.30435 -0.32066,-1.96945 0.017,-1.84959 0.85642,0.0621 0.43284,-2.05698 -0.20231,-1.01215 -0.75448,-1.94033 -0.90402,-2.96161 -0.40432,-2.76129 0.15649,-5.61537 -0.61549,-8.34954 -0.0567,-0.97974 -0.12037,-1.95909 -0.16995,-2.93921 -0.0269,-0.53105 -0.20163,-1.08175 -0.0594,-1.5941 0.87359,-3.14573 1.85992,-0.38798 1.31758,-4.82798 -0.15199,-1.24428 -0.91642,-2.35129 -1.13212,-3.58611 -0.14723,-0.84289 0.0383,-1.71087 0.0574,-2.5663 -0.14527,-0.40542 -0.32581,-0.79988 -0.43582,-1.21625 -0.29438,-1.11427 0.51261,-6.12578 0.54894,-6.57413 0.12595,-1.55435 0.21913,-3.11386 0.21704,-4.6733 -0.002,-1.28255 -0.15231,-2.56058 -0.22847,-3.84086 -0.26309,-0.66702 -0.80797,-1.28427 -0.78927,-2.00105 0.01,-0.38213 0.70615,-0.40785 0.86123,-0.75724 0.17454,-0.39324 -0.003,-0.86263 0.0474,-1.28985 0.16389,-1.37669 0.59559,-2.72988 0.59619,-4.11629 7.9e-4,-1.92784 -0.38456,-3.83648 -0.59193,-5.75313 -0.19049,-1.76052 -0.40109,-3.5188 -0.60163,-5.2782 -0.48056,-1.55632 -1.01206,-3.09782 -1.44168,-4.66896 -0.0778,-0.28472 0.56927,1.02257 0.48818,0.73876 -0.27019,-0.94578 -0.84197,-1.82358 -0.91875,-2.80421 -0.29081,-3.71451 0.77204,-7.45307 0.27057,-11.17435 -1.43984,-0.91309 -2.78142,-2.00364 -4.3195,-2.73927 -0.18503,-0.0885 -0.3515,0.48846 -0.17349,0.59036 1.35848,0.77767 2.77816,1.68386 4.33957,1.79454 0.49862,0.0353 0.34158,-0.96423 0.32563,-1.46385 -0.52217,-16.365103 -1.03508,3.40799 -0.24572,-14.820735 0.15613,-1.49919 0.27385,-3.002881 0.4684,-4.49757 0.11197,-0.860243 0.43029,-1.695921 0.45064,-2.56318 0.0413,-1.761128 -1.38755,-6.268533 -1.66054,-7.15658 -1.39421,-4.535416 -0.52075,-3.252049 -2.68324,-5.532485 -1.48005,-1.137486 0.32173,0.512958 1.17104,-2.792304 0.16107,-0.626856 -0.39823,-1.231884 -0.57799,-1.853639 -0.45954,-1.589466 -0.772,-3.225361 -1.33976,-4.779465 -0.84402,-2.310334 -3.16965,-6.931962 -4.31423,-9.269757 -0.0884,-0.319055 -4.60052,0.931024 -4.51213,1.25008 z" />
  </g>
  <g
     inkscape:groupmode="layer"
     id="layer2"
     inkscape:label="edge">
    <g
       id="g399"
       inkscape:label="mimi"
       transform="matrix(2.1996055,0,0,2.1979043,-17.261928,-26.675091)"
       style="stroke-width:0.454804">
      <path
         style="fill:#000000;fill-opacity:1;stroke:#000000;stroke-width:0.454804;stroke-linecap:round;stroke-linejoin:round"
         id="path383"
         d="m 23.678425,63.514151 c 1.011841,0.09414 2.020088,0.242755 3.035525,0.282426 14.19067,0.55444 28.755916,-0.465656 42.838057,-1.816526 23.643684,-2.26809 31.729623,-3.752588 55.634463,-7.226252 33.40594,-6.176052 17.76686,-2.804964 46.9815,-9.810414 1.49854,-0.603956 -7.04269,-21.796583 -8.54124,-21.192627 v 0 c -30.97212,2.534288 -14.63964,0.742855 -48.95977,5.707105 -9.45699,1.876168 -18.953809,3.561651 -28.370966,5.628499 -16.127267,3.539567 -29.404937,7.076057 -44.994793,11.78288 -4.139207,1.249691 -8.222469,2.677719 -12.33062,4.026001 -8.183158,2.685682 -3.250655,1.12272 -7.870854,2.575549 -0.710171,0.182343 1.868524,10.225699 2.578698,10.043359 z" />
      <path
         style="fill:#000000;fill-opacity:1;stroke:#000000;stroke-width:0.454804;stroke-linecap:round;stroke-linejoin:round"
         id="path385"
         d="m 58.449881,57.502 c -0.154469,0.782531 -0.334512,1.560449 -0.463404,2.3476 -0.595672,3.637791 -1.234932,8.847651 -1.585312,12.234823 -1.110131,10.731827 -1.550564,16.278117 -1.839243,27.594257 -0.155879,6.11051 -0.08657,12.22468 -0.129855,18.33701 0.34648,16.416 0.198753,20.98187 1.464964,37.08429 0.580395,7.3809 1.536313,17.10661 3.211674,24.61289 0.383492,1.7182 1.090874,3.3477 1.636312,5.02155 0.02257,0.92259 13.070049,0.60339 13.047478,-0.31921 v 0 c 0.446595,-1.71969 1.066895,-3.40343 1.339783,-5.15909 1.186657,-7.63453 1.432635,-17.35122 1.47233,-24.80034 0.08294,-15.56464 -0.437994,-21.29122 -1.238697,-37.06527 C 74.889968,111.3351 74.484875,105.2737 73.938087,99.22427 73.210401,91.17345 71.947269,80.36274 70.978455,72.084423 70.466759,67.712085 70.086211,64.082185 69.393143,59.8496 69.264251,59.062449 69.084208,58.284531 68.929739,57.502 c 0,-0.74104 -10.479858,-0.74104 -10.479858,0 z" />
      <path
         style="fill:#000000;fill-opacity:1;stroke:#000000;stroke-width:0.454804;stroke-linecap:round;stroke-linejoin:round"
         id="path387"
         d="m 74.271478,119.00887 c 1.259271,-0.0673 2.520471,-0.10491 3.777808,-0.20179 4.295598,-0.33099 16.693675,-1.52691 19.807655,-1.84544 8.719689,-0.89192 21.762509,-2.30327 30.385259,-3.46915 4.50668,-0.60934 8.99272,-1.36277 13.48908,-2.04415 1.22101,-0.44261 -5.03839,-17.71035 -6.2594,-17.26775 v 0 c -4.75178,0.38499 -9.52372,0.57241 -14.25535,1.15496 -10.5695,1.30128 -20.09075,3.21517 -30.341956,6.01322 -7.234563,1.97465 -11.933687,3.63291 -18.462765,6.57852 -1.18885,0.53635 -2.314639,1.20274 -3.471958,1.80411 -0.656016,0.377 4.675611,9.65448 5.331627,9.27747 z" />
      <path
         style="fill:#000000;fill-opacity:1;stroke:#000000;stroke-width:0.454804;stroke-linecap:round;stroke-linejoin:round"
         id="path389"
         d="m 67.282628,145.99765 c 1.951122,0.70918 2.951851,1.16895 5.274667,1.37857 3.17168,0.28623 6.3602,0.34806 9.543209,0.44768 8.951214,0.28018 14.137217,0.26021 23.385316,-0.30729 4.52009,-0.27737 9.02466,-0.76691 13.53698,-1.15037 3.90617,-0.54666 7.81234,-1.09333 11.71851,-1.63999 1.14548,-0.39943 -4.50343,-16.59887 -5.6489,-16.19943 v 0 c -4.01578,0.25007 -8.03157,0.50014 -12.04735,0.75021 -13.344616,1.58395 -12.80766,1.2957 -25.684415,3.67294 -3.084676,0.56947 -6.180209,1.11048 -9.218861,1.88901 -0.841854,0.2157 -1.543568,0.82 -2.372548,1.08083 -1.279964,0.40274 -2.657692,0.41943 -3.938704,0.83138 -0.653822,-0.32158 -5.201726,8.92487 -4.547904,9.24646 z" />
      <path
         style="fill:#000000;fill-opacity:1;stroke:#000000;stroke-width:0.454804;stroke-linecap:round;stroke-linejoin:round"
         id="path391"
         d="m 14.562166,204.72339 c 6.87391,0.1559 8.930662,0.27702 17.149242,-0.0938 6.576845,-0.29674 13.149508,-0.70148 19.714024,-1.20155 21.744453,-1.65644 38.363641,-3.25058 60.206438,-6.48227 10.63249,-1.57309 21.18983,-3.61784 31.78474,-5.42676 16.21641,-3.67422 29.09382,-5.89292 44.37198,-11.51537 3.07686,-1.1323 5.88612,-2.88969 8.82918,-4.33453 1.04142,-0.44181 -5.2068,-15.16973 -6.24823,-14.72791 v 0 c -3.6249,-0.26015 -7.24061,-0.81061 -10.87472,-0.78045 -17.3963,0.14436 -29.48608,2.1729 -47.31343,4.27306 -10.598,1.80513 -21.23945,3.3715 -31.79401,5.41537 -21.801577,4.22182 -36.421082,7.79758 -57.366506,13.86716 -10.964598,3.17732 -17.772637,5.46661 -27.729959,9.37808 -1.131793,0.44459 -2.223323,0.98555 -3.334984,1.47833 -0.717757,0.18429 1.888478,10.33491 2.606235,10.15062 z" />
      <path
         style="fill:#000000;fill-opacity:1;stroke:#000000;stroke-width:0.454804;stroke-linecap:round;stroke-linejoin:round"
         id="path393"
         d="m 126.65415,51.361629 c 0.0251,0.827453 0.0293,1.655805 0.0754,2.482355 0.51898,9.312561 0.29625,1.621425 0.86935,13.695643 0.18519,3.901639 0.33375,7.805213 0.44333,11.709713 0.38019,13.54694 0.31302,17.80534 0.3814,31.84261 -0.25622,26.99785 -1.68024,53.97358 -1.80893,80.97369 -0.088,18.45504 0.15205,19.90078 0.84102,37.71868 0.18945,10.85212 1.97407,21.52811 3.86226,32.17574 0.57568,3.24628 1.10957,6.49427 1.95614,9.6815 2.23819,3.28078 0.78074,1.44256 10.61633,0.65265 0.005,0 0.3338,-1.63648 0.35905,-1.76173 0.0582,-0.74785 -10.51776,-1.57062 -10.57594,-0.82278 v 0 c -0.0102,0.41442 -0.0562,0.82952 -0.0306,1.24328 0.0114,0.18439 -0.043,0.51583 0.1406,0.53605 10.28909,1.13284 8.88986,3.69715 10.56417,-0.17942 0.59176,-3.22958 0.82717,-6.48708 1.17192,-9.7518 1.11813,-10.5886 2.52237,-21.15783 2.55194,-31.83221 0.18942,-5.87686 0.41609,-11.75264 0.56825,-17.63058 0.33316,-12.86921 0.50185,-27.54006 0.74808,-40.3823 0.13331,-6.95297 0.38885,-13.90395 0.44663,-20.85795 0.17218,-20.72176 -0.0739,-20.23765 -0.99909,-40.57096 -1.23204,-13.96094 -1.4043,-19.37557 -3.69023,-32.8128 -1.49251,-8.77332 -3.5747,-18.058054 -7.0773,-26.304752 -0.41149,-0.968822 -0.95079,-1.878232 -1.42618,-2.817347 -0.21303,-0.706228 -10.20058,2.306492 -9.98755,3.012718 z" />
    </g>
  </g>
  <g
     inkscape:groupmode="layer"
     id="layer3"
     inkscape:label="parts"
     style="display:none">
    <path
       style="fill:#a9a9ff;stroke-width:3.49999;stroke-linecap:round;stroke-linejoin:round"
       d="m 147.1033,194.62705 c -0.86411,-10.49784 -7.19112,-68.33394 -8.64133,-78.9917 -0.57532,-4.22807 -0.50377,-4.56669 1.02658,-4.85844 0.90475,-0.17249 11.92888,-1.42364 24.49808,-2.78035 12.56919,-1.3567 39.38311,-4.85219 59.58647,-7.76774 l 36.73341,-5.300999 0.48956,7.507899 c 0.79645,12.21414 1.97045,40.05232 2.51144,59.55215 l 0.50452,18.18487 -6.96496,0.49401 c -26.08971,1.85046 -73.82133,12.30157 -98.59819,21.58863 L 148.046,206.0797 Z"
       id="path366"
       inkscape:label="top" />
    <path
       style="fill:#a9a9ff;stroke-width:3.49999;stroke-linecap:round;stroke-linejoin:round"
       d="m 151.765,265.74282 c -0.004,-1.67102 -0.36095,-8.85288 -0.7935,-15.9597 -0.43255,-7.10681 -0.66438,-13.04345 -0.51517,-13.19255 0.14922,-0.1491 9.99229,-1.16197 21.8735,-2.25083 23.57049,-2.16013 67.19056,-6.81123 81.22387,-8.6607 4.86055,-0.64057 9.12588,-1.16468 9.4785,-1.16468 0.77384,0 0.81724,9.01989 0.11698,24.31594 l -0.51839,11.32338 -1.46765,-2.85854 c -1.71675,-3.34372 -0.91501,-3.25704 -18.90113,-2.04338 -25.33428,1.7095 -68.967,8.13153 -88.45718,13.01948 -1.92118,0.48181 -2.03317,0.34301 -2.03983,-2.52842 z"
       id="path472"
       inkscape:label="center" />
    <path
       style="fill:#a9a9ff;stroke-width:3.49999;stroke-linecap:round;stroke-linejoin:round"
       d="m 151.28314,352.2745 c 0.27727,-2.05713 0.72958,-14.72489 1.00517,-28.15054 l 0.50106,-24.41025 28.4517,-0.006 c 29.18988,-0.006 48.72142,-1.17766 71.16445,-4.26676 l 9.61517,-1.32345 -0.3918,17.36574 c -0.21551,9.55117 -0.5665,18.81766 -0.78001,20.59222 l -0.38822,3.22645 -20.2617,3.34668 c -21.78487,3.5983 -61.56436,11.23458 -78.29641,15.03022 -5.6647,1.28502 -10.48487,2.33644 -10.71148,2.33644 -0.22662,0 -0.18518,-1.68312 0.0921,-3.74029 z"
       id="path474"
       inkscape:label="bottom" />
  </g>
</svg>
