<?xml version="1.0" encoding="UTF-8" standalone="no"?>
<!-- Created with Inkscape (http://www.inkscape.org/) -->

<svg
   width="200mm"
   height="300mm"
   viewBox="0 0 200 300"
   version="1.1"
   id="svg5"
   xml:space="preserve"
   inkscape:version="1.2.2 (732a01da63, 2022-12-09)"
   sodipodi:docname="mimi_drawing.svg"
   xmlns:inkscape="http://www.inkscape.org/namespaces/inkscape"
   xmlns:sodipodi="http://sodipodi.sourceforge.net/DTD/sodipodi-0.dtd"
   xmlns="http://www.w3.org/2000/svg"
   xmlns:svg="http://www.w3.org/2000/svg"><sodipodi:namedview
     id="namedview7"
     pagecolor="#ffffff"
     bordercolor="#000000"
     borderopacity="0.25"
     inkscape:showpageshadow="2"
     inkscape:pageopacity="0.0"
     inkscape:pagecheckerboard="0"
     inkscape:deskcolor="#d1d1d1"
     inkscape:document-units="mm"
     showgrid="false"
     inkscape:zoom="0.36925855"
     inkscape:cx="-729.84092"
     inkscape:cy="490.17145"
     inkscape:window-width="1920"
     inkscape:window-height="1009"
     inkscape:window-x="1917"
     inkscape:window-y="-8"
     inkscape:window-maximized="1"
     inkscape:current-layer="layer5"
     showguides="false"><inkscape:page
       x="0"
       y="0"
       width="200"
       height="300"
       id="page196" /><inkscape:grid
       type="xygrid"
       id="grid322"
       originx="0"
       originy="0" /></sodipodi:namedview><defs
     id="defs2"><linearGradient
       id="linearGradient6607"
       inkscape:swatch="solid"><stop
         style="stop-color:#1e1e1e;stop-opacity:1;"
         offset="0"
         id="stop6605" /></linearGradient><clipPath
       clipPathUnits="userSpaceOnUse"
       id="clipPath2315"><rect
         style="fill:#000080;fill-opacity:0;stroke-width:12.5001;stroke-linecap:round;stroke-linejoin:round"
         id="rect2317"
         width="0.23944625"
         height="0.40331802"
         x="0.39875367"
         y="0.28043219"
         transform="matrix(0,1,1,0,0,0)" /></clipPath></defs><g
     inkscape:groupmode="layer"
     id="layer5"
     inkscape:label="Base"
     style="display:inline"><path
       style="display:inline;fill:#e6ceaa;fill-opacity:1;stroke:#000000;stroke-width:0.2;stroke-linecap:round;stroke-linejoin:round;stroke-dasharray:0.599998, 0.599998;stroke-dashoffset:0;stroke-opacity:1"
       d="M 31.038915,137.52705 C 25.412033,126.35858 20.555509,87.805842 32.38458,63.996582 40.138025,48.390729 78.155008,16.096447 103.95139,13.84127 c 24.11943,-2.108568 50.3822,16.285538 62.28338,37.370019 10.46456,18.539315 10.78533,68.145131 4.49822,101.383501 -5.91145,31.25276 -19.55263,61.83951 -38.75405,87.19669 -14.65928,19.35891 -39.045988,46.91439 -56.055021,46.52725 -6.247484,-0.14198 -18.885365,-0.91022 -20.761163,-21.26792 l 2.982723,-15.39782 -11.633158,-20.24208 -7.3109,-10.38057 -8.982034,-6.60448 -4.46819,-57.75497 5.287718,-17.14384"
       id="path1030-4"
       sodipodi:nodetypes="csssaasc"
       inkscape:label="path1030-4" /><path
       style="display:inline;fill:#69532c;fill-opacity:0.642086;stroke:none;stroke-width:0.0999997;stroke-linecap:round;stroke-linejoin:round;stroke-dasharray:none;stroke-dashoffset:0;stroke-opacity:1"
       d="m 47.970361,202.12074 c 0,0 3.374378,0.74873 5.0914,0.79299 3.26638,0.084 6.759776,0.30732 9.750282,-1.00915 3.529571,-1.55379 6.260793,-4.65566 8.650044,-7.68281 2.461165,-3.11828 4.816386,-6.6164 5.627462,-10.50526 0.635888,-3.04888 -0.254716,-6.23863 -0.751824,-9.31319 -0.496739,-3.07218 -0.800459,-6.29898 -2.219857,-9.06853 -1.322319,-2.58015 -2.932973,-5.60201 -5.650495,-6.61231 -3.526021,-1.31088 -7.528148,0.7103 -11.155646,1.70652 -4.749921,1.30448 -13.699811,5.53949 -13.699811,5.53949 l -3.630591,2.45854 -4.541605,12.20917 0.692036,10.36664 z"
       id="path3843-3"
       sodipodi:nodetypes="caaaaaaaac" /></g><g
     inkscape:groupmode="layer"
     id="layer4"
     inkscape:label="Holes"
     style="display:none"><path
       style="fill:#7b639d;fill-opacity:1;stroke:none;stroke-width:0.2;stroke-linecap:round;stroke-linejoin:round;stroke-dasharray:none;stroke-opacity:1"
       d="m 39.201421,167.75186 18.110306,-7.32286 11.155646,-1.70652 5.650506,6.61232 2.219857,9.06852 0.751813,9.31319 -5.627462,10.50526 -8.650033,7.68281 -9.750293,1.00915 -10.182801,-1.58601 5.249239,-10.45559 0.806254,-6.44367 -2.806943,-9.15372 z"
       id="path2975"
       inkscape:label="Bottom"
       sodipodi:nodetypes="cccccccccccccc" /><path
       style="fill:#7b639d;fill-opacity:1;stroke:none;stroke-width:0.2;stroke-linecap:round;stroke-linejoin:round;stroke-dasharray:none;stroke-opacity:1"
       d="m 72.463705,152.24874 -15.151978,-27.28485 -4.818552,-17.38131 -1.007479,-16.872768 9.749043,-0.0844 14.175068,-2.97851 29.414443,-13.819412 6.64894,15.604062 4.59533,11.002838 5.18382,17.38559 0.37721,17.09762 -5.79506,25.51147 -10.9952,20.38909 -13.447588,17.4774 -16.678866,18.83173 -3.329584,9.28945 -10.992448,-2.66635 -1.39488,-8.10733 14.228291,-11.33012 8.600837,-10.10676 3.78738,-20.74629 1.10103,-13.03082 z"
       id="path508"
       inkscape:label="Middle"
       sodipodi:nodetypes="ccccccccccccccccccccccc" /><path
       style="fill:#7b639d;fill-opacity:1;stroke:none;stroke-width:0.2;stroke-linecap:round;stroke-linejoin:round;stroke-dasharray:none;stroke-opacity:1"
       d="m 57.584899,73.554252 10.33595,3.790663 14.426523,-0.572471 17.65177,-7.568196 -11.27255,-0.546356 -1.21105,-7.066023 5.31975,-7.338219 12.013678,7.340148 10.51007,13.751477 8.54963,27.598125 3.35665,21.25097 -2.42373,22.14279 -4.35834,17.52958 -5.81027,13.71562 -24.039728,33.7508 24.044718,-14.102 19.40768,-18.86613 14.15614,-23.69417 3.8519,-26.76078 -1.89625,-26.53625 L 143.75535,74.814695 133.69554,53.160946 120.63681,41.348651 105.09743,36.678504 87.000272,42.04867 71.462065,53.160946 62.741994,61.994641 57.584877,73.554252"
       id="path2973"
       inkscape:label="Peripheral"
       sodipodi:nodetypes="cccccccccccccccccccccccccccc" /></g><g
     inkscape:groupmode="layer"
     id="layer6"
     inkscape:label="Walls"
     style="display:inline"><path
       style="display:inline;fill:#dc9846;fill-opacity:1;stroke:none;stroke-width:0.2;stroke-linecap:round;stroke-linejoin:round;stroke-dasharray:none;stroke-opacity:1"
       d="m 36.131756,206.40066 c 6.032425,-1.08731 13.345491,-13.51292 12.802697,-21.9722 -0.616908,-9.61388 -6.129092,-14.16985 -17.622365,-22.90674 -1.516723,-1.04415 -3.23878,-0.90667 -5.102343,-0.9237 l 4.009642,51.82784 c 1.481196,-2.61912 2.136109,-4.91954 5.912369,-6.0252 z"
       id="path878-1"
       sodipodi:nodetypes="cacccc" /><path
       id="path296-7"
       style="display:inline;fill:#dc9846;fill-opacity:1;stroke:none;stroke-width:0.2;stroke-linecap:round;stroke-linejoin:round;stroke-dasharray:none;stroke-opacity:1"
       d="m 71.38324,226.41667 c 0,0 1.666066,-6.45171 3.329585,-9.28945 5.374737,-9.16858 14.800997,-15.36867 20.934127,-24.04829 8.866838,-12.54833 18.141378,-25.45394 22.664208,-40.13814 3.45816,-11.22743 4.28304,-23.44982 2.94118,-35.12087 -0.89989,-7.82708 -7.26636,-22.491238 -7.26636,-22.491238 l -9.16173,-21.501257 -4.825108,-4.623177 c 0,0 -8.4561,1.947589 -11.27255,-0.546356 -1.78909,-1.584226 -1.75297,-4.738595 -1.21105,-7.066023 0.68514,-2.942499 2.45028,-8.283572 5.31978,-7.338219 15.841558,5.218984 26.199388,30.063462 31.073348,48.68975 5.14897,19.67736 2.75564,41.54539 -3.42542,60.92334 -5.67986,17.80676 -19.65104,36.30106 -29.849998,47.46642 z"
       sodipodi:nodetypes="caaaacccaassscc" /><path
       id="path1016-6"
       style="display:inline;fill:#dc9846;fill-opacity:1;stroke:none;stroke-width:0.2;stroke-linecap:round;stroke-linejoin:round;stroke-dasharray:none;stroke-opacity:1"
       d="m 51.485696,90.709812 c 18.247345,2.94005 34.126736,-7.978921 53.338554,-16.882387 l -4.825108,-4.623177 c 0,0 -16.18588,7.38153 -24.86503,7.854432 -5.956404,0.324531 -17.549213,-3.504428 -17.549213,-3.504428 0,0 -10.979139,16.36929 -6.099203,17.15556 z"
       sodipodi:nodetypes="sccacs" /><path
       id="path1365"
       style="fill:#ebb46b;fill-opacity:1;stroke:none;stroke-width:0.2;stroke-linecap:round;stroke-linejoin:round;stroke-dasharray:none;stroke-dashoffset:0;stroke-opacity:1"
       d="m 72.463705,152.24874 c 0,0 -11.705229,-17.46919 -15.151978,-27.28485 -3.837288,-10.92785 -6.827291,-22.71544 -5.826031,-34.254078 0.524663,-6.04645 4.02765,-11.45087 6.099203,-17.15556 6.212918,-17.109243 34.405923,-38.078188 47.512531,-36.875748 30.68859,2.815461 37.47976,34.457646 41.41426,47.404548 4.32678,14.23783 9.17024,48.258358 1.73014,70.587828 -5.71136,17.14102 -22.69368,34.04493 -33.56385,42.56026 l -29.065548,18.68505 c -7.336898,3.72506 -12.359958,7.81763 -16.731265,13.49472 -5.766521,7.48918 -10.468432,17.33258 -11.56944,25.88839 0,0 -1.868039,6.4349 -2.148971,9.75151 -1.085299,12.81329 9.842437,21.81355 20.761163,21.26792 17.009033,0.38714 41.395741,-27.16834 56.055021,-46.52725 19.20142,-25.35718 32.8426,-55.94393 38.75405,-87.19669 6.28711,-33.23837 5.96634,-82.844186 -4.49822,-101.383501 C 154.33359,30.126808 128.07082,11.732702 103.95139,13.84127 78.155008,16.096447 40.138025,48.390729 32.38458,63.996582 c -11.829071,23.80926 -6.972547,62.361998 -1.345665,73.530468 4.733207,9.39464 26.272812,15.16914 41.42479,14.72169"
       sodipodi:nodetypes="caassssccscscsssscsc" /><path
       style="fill:#ebc393;fill-opacity:1;stroke:none;stroke-width:0.0999997;stroke-linecap:round;stroke-linejoin:round"
       d="m 31.038915,137.52705 -5.287718,17.14384 0.458553,5.92713 5.102349,0.92367 8.669226,6.90534 c 0,0 2.340829,-1.77101 3.630602,-2.45852 4.346777,-2.3171 8.94989,-4.23502 13.699811,-5.53951 3.627487,-0.99622 7.629614,-3.0174 11.155635,-1.70653 2.717534,1.01029 4.328187,4.03217 5.650506,6.61232 1.419387,2.76955 1.723096,5.99635 2.219857,9.06853 0.497119,3.07456 1.387701,6.26431 0.751813,9.31319 -0.811065,3.88886 -3.352841,7.2484 -5.627462,10.50526 -1.145969,1.64081 -2.491678,3.16043 -3.992938,4.48396 -1.412688,1.24545 -2.889608,2.54866 -4.657095,3.19885 -3.06655,1.12806 -6.521751,1.51199 -9.750282,1.00915 -5.091411,-0.79299 -7.988511,-3.51374 -7.988511,-3.51374 0,0 -6.24447,6.19832 -8.941505,7.00067 -3.672962,1.09271 -5.912369,6.0252 -5.912369,6.0252 l 4.491017,3.30223 c 0,0 4.344287,-3.6326 6.988423,-4.39493 2.326616,-0.67079 4.892419,-0.48785 7.264141,0 3.565187,0.73333 10.032967,4.30983 10.032967,4.30983 0,0 9.87198,-7.11351 14.22828,-11.33013 3.178568,-3.07663 6.705337,-6.10973 8.600857,-10.10675 3.01216,-6.35169 2.85912,-13.77812 3.78736,-20.74629 0.5756,-4.32092 3.12436,-9.16976 1.10105,-13.03082 -2.54218,-4.85122 -14.249766,-8.18026 -14.249766,-8.18026 0,0 -15.330851,0.25498 -22.407076,-2.25021 -7.14615,-2.52993 -19.017725,-12.47148 -19.017725,-12.47148 z"
       id="path1510"
       sodipodi:nodetypes="cccccaaaaaaaaascsccaacaaaacac" /><path
       style="fill:#e8bb85;fill-opacity:1;stroke:none;stroke-width:0.0999997;stroke-linecap:round;stroke-linejoin:round"
       d="m 34.710404,215.72809 c 0,0 3.190603,1.975 4.491017,3.30225 2.961912,3.02304 5.035597,6.81199 7.3109,10.38057 4.183847,6.56194 11.633158,20.24208 11.633158,20.24208 0,0 3.214229,-8.21741 5.384056,-12.04149 2.249545,-3.96458 7.853705,-11.1948 7.853705,-11.1948 0,0 -3.664141,-0.88881 -5.496218,-1.33321 -1.832076,-0.44441 -4.208979,0.0443 -5.496218,-1.33317 -1.872371,-2.0034 0.139148,-5.83443 -1.39488,-8.10733 -1.140733,-1.69016 -3.315584,-2.44541 -5.203005,-3.21713 -1.527888,-0.62473 -3.189487,-0.90946 -4.829951,-1.0927 -2.406412,-0.26881 -7.264141,0 -7.264141,0 l -9.233926,2.7438 z"
       id="path1730"
       sodipodi:nodetypes="caacacaaaaaccc" /></g><g
     inkscape:groupmode="layer"
     id="layer2"
     inkscape:label="Boundary"
     style="display:inline"><path
       style="fill:#000080;fill-opacity:0;stroke:#000000;stroke-width:0.400001;stroke-linecap:round;stroke-linejoin:round;stroke-dasharray:none;stroke-opacity:1"
       d="m 31.312088,161.52172 c 11.493273,8.73689 17.005457,13.29286 17.622365,22.90674 0.542794,8.45928 -6.770272,20.88489 -12.802697,21.9722"
       id="path878"
       sodipodi:nodetypes="cac" /><path
       style="fill:#000080;fill-opacity:0;stroke:#000000;stroke-width:0.400001;stroke-linecap:round;stroke-linejoin:round;stroke-dasharray:none;stroke-opacity:1"
       d="M 72.463716,152.24874 C 57.311738,152.69619 35.772133,146.92169 31.038927,137.52705 25.412042,126.35858 20.555518,87.805842 32.384591,63.996582 40.138036,48.390729 78.155008,16.096446 103.95141,13.841269 c 24.11941,-2.108569 50.38219,16.285537 62.28338,37.370019 10.46456,18.539305 10.78531,68.145132 4.49822,101.383502 -5.91147,31.25276 -19.55262,61.83951 -38.75407,87.19669 -14.65928,19.35891 -39.045978,46.91439 -56.05501,46.52725 -6.247484,-0.14198 -18.885365,-0.91024 -20.761163,-21.26792"
       id="path1030"
       sodipodi:nodetypes="cssssaasc" /><path
       style="fill:#000080;fill-opacity:0;stroke:#000000;stroke-width:0.400001;stroke-linecap:round;stroke-linejoin:round;stroke-dasharray:none;stroke-opacity:1"
       d="m 92.835332,54.253649 c 24.237658,15.149469 26.199378,30.063453 31.073338,48.689751 5.14899,19.67736 2.75564,41.54537 -3.4254,60.92334 -5.67988,17.80676 -19.65105,36.30106 -29.850018,47.46641"
       id="path296"
       sodipodi:nodetypes="caac" /><path
       style="fill:#000080;fill-opacity:0;stroke:#000000;stroke-width:0.400001;stroke-linecap:round;stroke-linejoin:round;stroke-dasharray:none;stroke-opacity:1"
       d="m 51.485707,90.709812 c 22.781358,1.37512 34.126745,-7.978921 53.338543,-16.882387"
       id="path1016"
       sodipodi:nodetypes="cc" /><path
       style="fill:#000080;fill-opacity:0;stroke:#000000;stroke-width:0.0999997;stroke-linecap:round;stroke-linejoin:round;stroke-dasharray:none;stroke-opacity:1"
       d="m 57.58491,73.554252 c 2.181528,-17.482125 34.405922,-38.078189 47.51254,-36.87575 30.68859,2.815461 37.47974,34.457648 41.41424,47.40455 4.32678,14.23783 9.17024,48.258348 1.73014,70.587828 -5.71136,17.14102 -22.69367,34.04493 -33.56383,42.56026"
       id="path1033"
       sodipodi:nodetypes="cssac" /><path
       style="fill:#000080;fill-opacity:0;stroke:#000000;stroke-width:0.0999997;stroke-linecap:round;stroke-linejoin:round;stroke-dasharray:none;stroke-opacity:1"
       d="m 57.311738,255.2993 c 1.101008,-8.55581 5.802908,-18.39921 11.569441,-25.88839 4.371306,-5.67709 9.394355,-9.76966 16.731273,-13.49475"
       id="path2772"
       sodipodi:nodetypes="cac" /><path
       style="fill:none;fill-opacity:1;stroke:#000000;stroke-width:0.0999997;stroke-linecap:round;stroke-linejoin:round;stroke-dasharray:none;stroke-dashoffset:0;stroke-opacity:1"
       d="m 43.611916,165.96849 c 0,0 8.94989,-4.23501 13.699811,-5.53949 3.627498,-0.99622 7.629625,-3.0174 11.155646,-1.70652 2.717522,1.0103 4.328176,4.03216 5.650495,6.61231 1.419398,2.76955 1.723096,5.99635 2.219857,9.06853 0.49713,3.07456 1.387712,6.26431 0.751824,9.31319 -0.811076,3.88886 -3.166297,7.38698 -5.627462,10.50526 -2.389251,3.02715 -5.120473,6.12902 -8.650044,7.68281 -2.990506,1.31647 -6.483902,1.09308 -9.750282,1.00915 -1.717022,-0.0443 -5.0914,-0.79299 -5.0914,-0.79299"
       id="path3843"
       sodipodi:nodetypes="caaaaaaaac" /><path
       style="fill:none;fill-opacity:1;stroke:#000000;stroke-width:0.0999997;stroke-linecap:round;stroke-linejoin:round;stroke-opacity:1"
       d="m 65.887022,225.08349 c 0,0 -4.208979,0.0443 -5.496218,-1.33317 -1.872371,-2.0034 0.303061,-5.95412 -1.39488,-8.10733 -2.253776,-2.85811 -6.467769,-3.5765 -10.032956,-4.30983 -2.371734,-0.48785 -7.264141,0 -7.264141,0"
       id="path1239"
       sodipodi:nodetypes="caaac" /></g></svg>
