<?xml version="1.0" encoding="UTF-8" standalone="no"?>
<!-- Created with Inkscape (http://www.inkscape.org/) -->

<svg
   width="400mm"
   height="600mm"
   viewBox="0 0 400 600"
   version="1.1"
   id="svg5"
   xml:space="preserve"
   inkscape:version="1.2.2 (732a01da63, 2022-12-09)"
   sodipodi:docname="mimi_drawing.svg"
   xmlns:inkscape="http://www.inkscape.org/namespaces/inkscape"
   xmlns:sodipodi="http://sodipodi.sourceforge.net/DTD/sodipodi-0.dtd"
   xmlns="http://www.w3.org/2000/svg"
   xmlns:svg="http://www.w3.org/2000/svg"><sodipodi:namedview
     id="namedview7"
     pagecolor="#ffffff"
     bordercolor="#000000"
     borderopacity="0.25"
     inkscape:showpageshadow="2"
     inkscape:pageopacity="0.0"
     inkscape:pagecheckerboard="0"
     inkscape:deskcolor="#d1d1d1"
     inkscape:document-units="mm"
     showgrid="false"
     inkscape:zoom="0.26110523"
     inkscape:cx="-528.52254"
     inkscape:cy="1194.9205"
     inkscape:window-width="1920"
     inkscape:window-height="1009"
     inkscape:window-x="1917"
     inkscape:window-y="-8"
     inkscape:window-maximized="1"
     inkscape:current-layer="layer5"
     showguides="false"><inkscape:page
       x="0"
       y="0"
       width="400"
       height="600"
       id="page196" /><inkscape:grid
       type="xygrid"
       id="grid322"
       originx="0"
       originy="0" /></sodipodi:namedview><defs
     id="defs2"><linearGradient
       id="linearGradient6607"
       inkscape:swatch="solid"><stop
         style="stop-color:#1e1e1e;stop-opacity:1;"
         offset="0"
         id="stop6605" /></linearGradient><clipPath
       clipPathUnits="userSpaceOnUse"
       id="clipPath2315"><rect
         style="fill:#000080;fill-opacity:0;stroke-width:12.5001;stroke-linecap:round;stroke-linejoin:round"
         id="rect2317"
         width="0.23944625"
         height="0.40331802"
         x="0.39875367"
         y="0.28043219"
         transform="matrix(0,1,1,0,0,0)" /></clipPath></defs><g
     inkscape:groupmode="layer"
     id="layer5"
     inkscape:label="Base"
     style="display:inline"><path
       style="display:inline;fill:#e6ceaa;fill-opacity:1;stroke:#000000;stroke-width:0.2;stroke-linecap:round;stroke-linejoin:round;stroke-dasharray:0.599997, 0.599997;stroke-dashoffset:0;stroke-opacity:1"
       d="M 60.90012,274.85751 C 49.550138,252.34338 39.754045,174.62627 63.61446,126.63002 79.253931,95.17073 155.93797,30.069824 207.97184,25.523692 c 48.65131,-4.250588 101.62593,32.829444 125.63179,75.332898 21.10806,37.37276 21.75508,137.37139 9.07336,204.37544 -11.92398,63.00135 -39.4396,124.6601 -78.17078,175.77674 -29.56923,39.02495 -78.75965,94.57308 -113.06857,93.79265 -12.60179,-0.28621 -38.09366,-1.83488 -41.87733,-42.87325 L 115.57676,500.88825 92.111521,460.08295 77.364711,439.15712 59.24705,425.84339 50.234266,309.41717 60.90012,274.85751"
       id="path1030-4"
       sodipodi:nodetypes="csssaasc"
       inkscape:label="path1030-4" /><path
       style="display:inline;fill:#69532c;fill-opacity:0.642086;stroke:none;stroke-width:0.0999995;stroke-linecap:round;stroke-linejoin:round;stroke-dasharray:none;stroke-dashoffset:0;stroke-opacity:1"
       d="m 95.052531,405.06966 c 0,0 6.806459,1.50933 10.269859,1.59855 6.58862,0.16934 13.63515,0.61952 19.66729,-2.0343 7.1195,-3.13224 12.62864,-9.38519 17.448,-15.48751 4.96442,-6.28603 9.71513,-13.33777 11.35115,-21.17718 1.28266,-6.14613 -0.51378,-12.57624 -1.5165,-18.77414 -1.00197,-6.1931 -1.61461,-12.69789 -4.47767,-18.28093 -2.66725,-5.20123 -5.9161,-11.29289 -11.39761,-13.32952 -7.11234,-2.64256 -15.18502,1.43187 -22.50205,3.44011 -9.58106,2.62966 -27.633879,11.16687 -27.633879,11.16687 l -7.32327,4.95608 -9.160869,24.61203 1.395904,20.89775 z"
       id="path3843-3"
       sodipodi:nodetypes="caaaaaaaac" /></g><g
     inkscape:groupmode="layer"
     id="layer4"
     inkscape:label="Holes"
     style="display:none"><path
       style="fill:#7b639d;fill-opacity:1;stroke:none;stroke-width:0.2;stroke-linecap:round;stroke-linejoin:round;stroke-dasharray:none;stroke-opacity:1"
       d="m 96.997201,369.40441 -5.66188,-18.45266 -13.97061,-15.16511 36.530289,-14.7619 22.50205,-3.44011 11.39763,13.32954 4.47768,18.28091 1.51647,18.77414 z m 56.791629,-1.43519 -11.35115,21.17718 -17.44797,15.48751 -19.66732,2.0343 -20.539719,-3.19717 10.58824,-21.07706 1.62629,-12.98957 z"
       id="path2975"
       inkscape:label="Bottom"
       sodipodi:nodetypes="ccccccccccccccccc" /><path
       style="fill:#7b639d;fill-opacity:1;stroke:none;stroke-width:0.2;stroke-linecap:round;stroke-linejoin:round;stroke-dasharray:none;stroke-opacity:1"
       d="m 173.20127,321.02474 -28.74322,-16.4903 -30.56305,-55.00257 -9.7195,-35.03837 -2.03218,-34.01322 19.66479,-0.17014 28.59252,-6.00427 59.33186,-27.85807 13.41158,31.45568 9.26924,22.18024 10.45627,35.047 0.76088,34.46648 -11.68922,51.42768 z m 58.73997,1.4e-4 -22.17841,41.10166 -27.12513,35.23207 -33.64293,37.96223 -6.71611,18.72627 -22.17286,-5.375 -2.81361,-16.34329 28.69988,-22.83999 17.34875,-20.37386 7.63952,-41.82172 2.22093,-26.26851 z"
       id="path508"
       inkscape:label="Middle"
       sodipodi:nodetypes="cccccccccccccccccccccccccc" /><path
       style="fill:#7b639d;fill-opacity:1;stroke:none;stroke-width:0.2;stroke-linecap:round;stroke-linejoin:round;stroke-dasharray:none;stroke-opacity:1"
       d="m 185.54965,106.98958 24.23271,14.79675 21.19985,27.72112 17.24546,55.6341 6.77069,42.83908 50.0813,7.49033 -3.82492,-53.49349 -12.99434,-53.53963 -20.29164,-43.65103 z m 69.44871,140.99105 -4.8889,44.63684 -8.79121,35.33726 -11.71989,27.64883 -48.49052,68.03706 48.50059,-28.42773 39.14723,-38.03157 28.55434,-47.76424 7.76966,-53.94612 z m 12.9704,-143.19382 -26.34076,-23.811987 -31.34447,-9.414386 -36.50378,10.825527 -31.34211,22.400846 32.38146,16.9956 10.73055,-14.79283 z m -125.53112,0 -17.58926,17.80753 -10.40239,23.30262 20.84866,7.64146 29.09974,-1.15402 35.60538,-15.25647 -22.73786,-1.10137 -2.44281,-14.24415 z"
       id="path2973"
       inkscape:label="Peripheral"
       sodipodi:nodetypes="ccccccccccccccccccccccccccccccccccccc" /></g><g
     inkscape:groupmode="layer"
     id="layer6"
     inkscape:label="Walls"
     style="display:inline"><path
       style="display:inline;fill:#dc9846;fill-opacity:1;stroke:none;stroke-width:0.2;stroke-linecap:round;stroke-linejoin:round;stroke-dasharray:none;stroke-opacity:1"
       d="m 71.172886,413.6974 c 12.168005,-2.19187 26.919195,-27.24022 25.824315,-44.29299 -1.24436,-19.38028 -12.36298,-28.5645 -35.546064,-46.17689 -3.059382,-2.10487 -6.532942,-1.82773 -10.291934,-1.86206 l 8.087847,104.47793 c 2.987719,-5.2798 4.308745,-9.91713 11.925836,-12.14599 z"
       id="path878-1"
       sodipodi:nodetypes="cacccc" /><path
       id="path296-7"
       style="display:inline;fill:#dc9846;fill-opacity:1;stroke:none;stroke-width:0.2;stroke-linecap:round;stroke-linejoin:round;stroke-dasharray:none;stroke-opacity:1"
       d="m 142.27864,454.04697 c 0,0 3.36062,-13.00578 6.71611,-18.72628 10.84137,-18.48261 29.85508,-30.98116 42.22622,-48.4781 17.88529,-25.29574 36.59296,-51.31171 45.71596,-80.91306 6.97546,-22.63298 8.63933,-47.27168 5.93265,-70.79894 -1.81516,-15.77832 -14.65696,-45.33929 -14.65696,-45.33929 l -18.48013,-43.34363 -9.73272,-9.3197 c 0,0 -17.05679,3.92608 -22.73786,-1.10138 -3.60877,-3.19358 -3.53591,-9.55236 -2.44281,-14.24414 1.382,-5.93169 4.94247,-16.69857 10.73053,-14.79286 31.954,10.52076 52.84677,60.60388 62.67804,98.15196 10.38599,39.66689 5.5584,83.74988 -6.90942,122.81321 -11.45684,35.89602 -39.6381,73.17803 -60.21041,95.68589 z"
       sodipodi:nodetypes="caaaacccaassscc" /><path
       id="path1016-6"
       style="display:inline;fill:#dc9846;fill-opacity:1;stroke:none;stroke-width:0.2;stroke-linecap:round;stroke-linejoin:round;stroke-dasharray:none;stroke-opacity:1"
       d="m 102.14332,180.48028 c 36.80671,5.92674 68.83702,-16.08442 107.58917,-34.03261 l -9.73272,-9.3197 c 0,0 -32.64853,14.88017 -50.15525,15.83347 -12.01465,0.65422 -35.3985,-7.06445 -35.3985,-7.06445 0,0 -22.146019,32.99828 -12.3027,34.58329 z"
       sodipodi:nodetypes="sccacs" /><path
       id="path1365"
       style="fill:#ebb46b;fill-opacity:1;stroke:none;stroke-width:0.2;stroke-linecap:round;stroke-linejoin:round;stroke-dasharray:none;stroke-dashoffset:0;stroke-opacity:1"
       d="m 144.45805,304.53444 c 0,0 -23.61062,-35.21552 -30.56305,-55.00257 -7.7402,-22.02906 -13.77133,-45.79125 -11.75168,-69.05159 1.05829,-12.18883 8.12416,-23.0834 12.3027,-34.58329 12.53206,-34.48992 69.40017,-76.760475 95.83751,-74.336519 61.90194,5.675588 75.6004,69.461959 83.53668,95.561159 8.72755,28.70154 18.49729,97.28233 3.48986,142.29552 -11.52037,34.55398 -45.77541,68.62998 -67.70163,85.79573 l -58.6281,37.66654 c -14.79926,7.50921 -24.93127,15.75928 -33.74863,27.20353 -11.63164,15.09718 -21.11587,34.94014 -23.33671,52.18749 0,0 -3.76802,12.97189 -4.33469,19.65773 -2.18916,25.82986 19.85318,43.97317 41.87733,42.87325 34.30892,0.78043 83.49934,-54.7677 113.06857,-93.79265 38.73118,-51.11664 66.2468,-112.77539 78.17078,-175.77674 12.68172,-67.00405 12.0347,-167.00268 -9.07336,-204.37544 C 309.59777,58.353136 256.62315,21.273104 207.97184,25.523692 155.93797,30.069824 79.253931,95.17073 63.61446,126.63002 39.754045,174.62627 49.550138,252.34338 60.90012,274.85751 c 9.547351,18.93832 52.99488,30.57893 83.55793,29.67693"
       sodipodi:nodetypes="caassssccscscsssscsc" /><path
       style="fill:#ebc393;fill-opacity:1;stroke:none;stroke-width:0.0999995;stroke-linecap:round;stroke-linejoin:round"
       d="m 60.90012,274.85751 -10.665854,34.55966 0.924947,11.94829 10.291946,1.862 17.486692,13.92023 c 0,0 4.72169,-3.57012 7.32329,-4.95605 8.76788,-4.67095 18.052809,-8.53722 27.633879,-11.1669 7.31701,-2.00824 15.38969,-6.08267 22.50203,-3.44013 5.48153,2.03661 8.73038,8.12831 11.39763,13.32954 2.86304,5.58304 3.47566,12.08783 4.47768,18.28093 1.00273,6.1979 2.79913,12.62801 1.51647,18.77414 -1.636,7.83941 -6.76301,14.61179 -11.35115,21.17718 -2.31153,3.30765 -5.02596,6.371 -8.05415,9.03906 -2.84953,2.51066 -5.82863,5.13775 -9.39382,6.44845 -6.18554,2.27402 -13.15502,3.04796 -19.6673,2.0343 -10.269879,-1.59855 -16.113619,-7.08322 -16.113619,-7.08322 0,0 -12.59572,12.49498 -18.035905,14.11241 -7.408729,2.20275 -11.925836,12.14599 -11.925836,12.14599 l 9.058832,6.65684 c 0,0 8.762859,-7.32283 14.096339,-8.85958 4.69302,-1.35222 9.8685,-0.98344 14.6525,0 7.191329,1.4783 20.237489,8.68803 20.237489,8.68803 0,0 19.91277,-14.33987 28.69986,-22.84 6.41149,-6.20208 13.52534,-12.3164 17.34879,-20.37385 6.07583,-12.80414 5.76713,-27.77482 7.63948,-41.82171 1.16104,-8.7104 6.30214,-18.485 2.22093,-26.26838 -5.12783,-9.7794 -28.7432,-16.4903 -28.7432,-16.4903 0,0 -30.92386,0.51401 -45.197309,-4.53611 -14.41449,-5.1 -38.360641,-25.14082 -38.360641,-25.14082 z"
       id="path1510"
       sodipodi:nodetypes="cccccaaaaaaaaascsccaacaaaacac" /><path
       style="fill:#e8bb85;fill-opacity:1;stroke:none;stroke-width:0.0999995;stroke-linecap:round;stroke-linejoin:round"
       d="m 68.305882,432.50023 c 0,0 6.435759,3.98133 9.058829,6.65689 5.97447,6.09405 10.1573,13.73205 14.74681,20.92583 8.439229,13.22798 23.465239,40.8053 23.465239,40.8053 0,0 6.48342,-16.56519 10.86018,-24.27402 4.53755,-7.99205 15.8417,-22.5672 15.8417,-22.5672 0,0 -7.39094,-1.79172 -11.08642,-2.68757 -3.69548,-0.89587 -8.48993,0.0893 -11.08642,-2.68749 -3.77675,-4.03859 0.28068,-11.76143 -2.81361,-16.34329 -2.30097,-3.40713 -6.68786,-4.92962 -10.49497,-6.48529 -3.08191,-1.25938 -6.43352,-1.83335 -9.742499,-2.20274 -4.85397,-0.54188 -14.6525,0 -14.6525,0 l -18.625746,5.53113 z"
       id="path1730"
       sodipodi:nodetypes="caacacaaaaaccc" /></g><g
     inkscape:groupmode="layer"
     id="layer2"
     inkscape:label="Boundary"
     style="display:inline"><path
       style="fill:#000080;fill-opacity:0;stroke:#000000;stroke-width:0.4;stroke-linecap:round;stroke-linejoin:round;stroke-dasharray:none;stroke-opacity:1"
       d="m 61.451137,323.22752 c 23.183084,17.61239 34.301704,26.79661 35.546064,46.17689 1.09488,17.05277 -13.65631,42.10112 -25.824315,44.29299"
       id="path878"
       sodipodi:nodetypes="cac" /><path
       style="fill:#000080;fill-opacity:0;stroke:#000000;stroke-width:0.4;stroke-linecap:round;stroke-linejoin:round;stroke-dasharray:none;stroke-opacity:1"
       d="M 144.45807,304.53444 C 113.89502,305.43644 70.447491,293.79583 60.900144,274.85751 49.550156,252.34338 39.754063,174.62627 63.614483,126.63002 79.253951,95.17073 155.93797,30.069821 207.97188,25.52369 c 48.65127,-4.25059 101.62591,32.829441 125.63179,75.3329 21.10807,37.37274 21.75504,137.37139 9.07336,204.37544 -11.92402,63.00135 -39.43958,124.6601 -78.17082,175.77674 -29.56923,39.02495 -78.75963,94.57308 -113.06854,93.79265 -12.6018,-0.28621 -38.09367,-1.83491 -41.87734,-42.87325"
       id="path1030"
       sodipodi:nodetypes="cssssaasc" /><path
       style="fill:#000080;fill-opacity:0;stroke:#000000;stroke-width:0.4;stroke-linecap:round;stroke-linejoin:round;stroke-dasharray:none;stroke-opacity:1"
       d="m 185.54965,106.98958 c 48.88977,30.53929 52.84675,60.60386 62.67802,98.15197 10.38603,39.66689 5.5584,83.74985 -6.90938,122.81321 -11.45688,35.89602 -39.63812,73.17803 -60.21045,95.68587"
       id="path296"
       sodipodi:nodetypes="caac" /><path
       style="fill:#000080;fill-opacity:0;stroke:#000000;stroke-width:0.4;stroke-linecap:round;stroke-linejoin:round;stroke-dasharray:none;stroke-opacity:1"
       d="m 102.14334,180.48028 c 45.95226,2.77206 68.83704,-16.08442 107.58915,-34.03261"
       id="path1016"
       sodipodi:nodetypes="cc" /><path
       style="fill:#000080;fill-opacity:0;stroke:#000000;stroke-width:0.0999995;stroke-linecap:round;stroke-linejoin:round;stroke-dasharray:none;stroke-opacity:1"
       d="m 114.44604,145.89699 c 4.40036,-35.2416 69.40017,-76.760482 95.83752,-74.336526 61.90195,5.675588 75.60037,69.461966 83.53665,95.561166 8.72755,28.70154 18.49729,97.28231 3.48986,142.29552 -11.52037,34.55398 -45.77538,68.62998 -67.70158,85.79573"
       id="path1033"
       sodipodi:nodetypes="cssac" /><path
       style="fill:#000080;fill-opacity:0;stroke:#000000;stroke-width:0.0999995;stroke-linecap:round;stroke-linejoin:round;stroke-dasharray:none;stroke-opacity:1"
       d="m 113.89502,512.27044 c 2.22084,-17.24735 11.70505,-37.09031 23.33672,-52.18749 8.81736,-11.44425 18.94934,-19.69432 33.74864,-27.20359"
       id="path2772"
       sodipodi:nodetypes="cac" /><path
       style="fill:none;fill-opacity:1;stroke:#000000;stroke-width:0.0999995;stroke-linecap:round;stroke-linejoin:round;stroke-dasharray:none;stroke-dashoffset:0;stroke-opacity:1"
       d="m 86.261121,332.19161 c 0,0 18.052819,-8.53721 27.633879,-11.16687 7.31703,-2.00824 15.38971,-6.08267 22.50205,-3.44011 5.48151,2.03663 8.73036,8.12829 11.39761,13.32952 2.86306,5.58304 3.47565,12.08783 4.47767,18.28093 1.00276,6.1979 2.79916,12.62801 1.5165,18.77414 -1.63602,7.83941 -6.38673,14.89115 -11.35115,21.17718 -4.81936,6.10232 -10.3285,12.35527 -17.448,15.48751 -6.03214,2.65382 -13.07867,2.2035 -19.66729,2.0343 -3.4634,-0.0893 -10.269859,-1.59855 -10.269859,-1.59855"
       id="path3843"
       sodipodi:nodetypes="caaaaaaaac" /><path
       style="fill:none;fill-opacity:1;stroke:#000000;stroke-width:0.0999995;stroke-linecap:round;stroke-linejoin:round;stroke-opacity:1"
       d="m 131.19222,451.35946 c 0,0 -8.48993,0.0893 -11.08642,-2.68749 -3.77675,-4.03859 0.6113,-12.0027 -2.81361,-16.34329 -4.54609,-5.76156 -13.04614,-7.20973 -20.237469,-8.68803 -4.78402,-0.98344 -14.6525,0 -14.6525,0"
       id="path1239"
       sodipodi:nodetypes="caaac" /></g></svg>
