<?xml version="1.0" encoding="UTF-8" standalone="no"?>
<!-- Created with Inkscape (http://www.inkscape.org/) -->

<svg
   width="600mm"
   height="900mm"
   viewBox="0 0 600 900"
   version="1.1"
   id="svg5"
   xml:space="preserve"
   inkscape:version="1.2.2 (732a01da63, 2022-12-09)"
   sodipodi:docname="mimi_drawing.svg"
   xmlns:inkscape="http://www.inkscape.org/namespaces/inkscape"
   xmlns:sodipodi="http://sodipodi.sourceforge.net/DTD/sodipodi-0.dtd"
   xmlns="http://www.w3.org/2000/svg"
   xmlns:svg="http://www.w3.org/2000/svg"><sodipodi:namedview
     id="namedview7"
     pagecolor="#ffffff"
     bordercolor="#000000"
     borderopacity="0.25"
     inkscape:showpageshadow="2"
     inkscape:pageopacity="0.0"
     inkscape:pagecheckerboard="0"
     inkscape:deskcolor="#d1d1d1"
     inkscape:document-units="mm"
     showgrid="false"
     inkscape:zoom="0.52221046"
     inkscape:cx="800.44356"
     inkscape:cy="1152.7919"
     inkscape:window-width="1920"
     inkscape:window-height="1009"
     inkscape:window-x="1917"
     inkscape:window-y="-8"
     inkscape:window-maximized="1"
     inkscape:current-layer="layer4"
     showguides="false"><inkscape:page
       x="0"
       y="0"
       width="600"
       height="900"
       id="page196" /><inkscape:grid
       type="xygrid"
       id="grid322"
       originx="0"
       originy="0" /></sodipodi:namedview><defs
     id="defs2"><linearGradient
       id="linearGradient6607"
       inkscape:swatch="solid"><stop
         style="stop-color:#1e1e1e;stop-opacity:1;"
         offset="0"
         id="stop6605" /></linearGradient><clipPath
       clipPathUnits="userSpaceOnUse"
       id="clipPath2315"><rect
         style="fill:#000080;fill-opacity:0;stroke-width:12.5001;stroke-linecap:round;stroke-linejoin:round"
         id="rect2317"
         width="0.23944625"
         height="0.40331802"
         x="0.39875367"
         y="0.28043219"
         transform="matrix(0,1,1,0,0,0)" /></clipPath></defs><g
     inkscape:groupmode="layer"
     id="layer5"
     inkscape:label="Base"
     style="display:inline"><path
       style="display:inline;fill:#e6ceaa;fill-opacity:1;stroke:#000000;stroke-width:0.2;stroke-linecap:round;stroke-linejoin:round;stroke-dasharray:0.599997, 0.599997;stroke-dashoffset:0;stroke-opacity:1"
       d="M 93.020897,412.59675 C 76.13225,379.10369 61.555771,263.48808 97.059805,192.08661 120.33117,145.28631 234.43617,48.439155 311.862,41.676116 c 72.3926,-6.323373 151.21825,48.838615 186.93871,112.068744 31.40856,55.59746 32.37132,204.36009 13.50106,304.03845 -17.74275,93.72375 -58.68569,185.45019 -116.31726,261.4937 -43.99869,58.05534 -117.19349,140.69132 -168.24478,139.53033 -18.75133,-0.42579 -56.68295,-2.72966 -62.31301,-63.78026 l 8.95241,-46.17644 -34.91601,-60.70386 -21.9431,-31.13024 L 90.561148,637.2104 77.150224,464.00932 93.020897,412.59675"
       id="path1030-4"
       sodipodi:nodetypes="csssaasc"
       inkscape:label="path1030-4" /><path
       style="display:inline;fill:#69532c;fill-opacity:0.642086;stroke:none;stroke-width:0.0999997;stroke-linecap:round;stroke-linejoin:round;stroke-dasharray:none;stroke-dashoffset:0;stroke-opacity:1"
       d="m 143.83931,606.30643 c 0,0 10.12793,2.24536 15.28144,2.37809 9.80379,0.25191 20.28895,0.92162 29.26471,-3.02633 10.59373,-4.65966 18.79128,-13.96184 25.96243,-23.03994 7.387,-9.3514 14.45601,-19.84189 16.89039,-31.50417 1.90857,-9.14327 -0.76451,-18.70899 -2.25654,-27.92928 -1.49092,-9.21314 -2.40252,-18.88998 -6.66273,-27.19557 -3.96883,-7.73759 -8.80309,-16.79983 -16.95952,-19.82961 -10.58308,-3.9312 -22.59514,2.13011 -33.4828,5.11767 -14.25651,3.912 -41.11891,16.61235 -41.11891,16.61235 l -10.89694,7.3729 -13.63127,36.61401 2.07709,31.08846 z"
       id="path3843-3"
       sodipodi:nodetypes="caaaaaaaac" /></g><g
     inkscape:groupmode="layer"
     id="layer4"
     inkscape:label="Holes"
     style="display:none"><path
       style="fill:#7b639d;fill-opacity:1;stroke:none;stroke-width:0.2;stroke-linecap:round;stroke-linejoin:round;stroke-dasharray:none;stroke-opacity:1"
       d="m 146.73296,553.24914 -8.42482,-27.45104 -20.78812,-22.56032 54.35667,-21.96049 33.4828,-5.11767 16.95956,19.82965 6.66273,27.19553 2.2565,27.92928 z m 84.50532,-2.13506 -16.89039,31.50417 -25.96239,23.03994 -29.26475,3.02633 -30.56288,-4.75627 15.75518,-31.35521 2.41991,-19.3239 z"
       id="path2975"
       inkscape:label="Bottom"
       sodipodi:nodetypes="ccccccccccccccccc" /><path
       style="fill:#7b639d;fill-opacity:1;stroke:none;stroke-width:0.2;stroke-linecap:round;stroke-linejoin:round;stroke-dasharray:none;stroke-opacity:1"
       d="m 260.12377,481.27729 -42.7696,-24.53174 -45.47748,-81.8244 -14.46251,-52.12471 -3.02386,-50.59966 29.26099,-0.25311 42.54536,-8.93223 88.28515,-41.44297 19.95628,46.79494 13.79253,32.99636 15.55882,52.13755 1.13217,51.27396 -17.39342,76.50622 z m 87.40443,2.1e-4 -33.00123,61.14474 -40.36189,52.41288 -50.06032,56.47438 -9.99349,27.85808 -32.99297,-7.99611 -4.18662,-24.31303 42.7051,-33.97784 25.81475,-30.3091 11.36752,-62.21595 3.30472,-39.07826 z"
       id="path508"
       inkscape:label="Middle"
       sodipodi:nodetypes="cccccccccccccccccccccccccc" /><path
       style="fill:#7b639d;fill-opacity:1;stroke:none;stroke-width:0.2;stroke-linecap:round;stroke-linejoin:round;stroke-dasharray:none;stroke-opacity:1"
       d="m 278.49802,162.86858 36.058,22.01234 31.54515,41.23923 25.66105,82.76388 10.07472,63.72942 74.52042,11.14297 -5.69144,-79.57942 -19.33543,-79.64805 -30.19374,-64.93732 z m 103.33892,209.74487 -7.27463,66.40385 -13.08122,52.56936 -17.43907,41.1317 -72.15336,101.2151 72.16834,-42.29042 58.25064,-56.57754 42.48855,-71.05632 11.56117,-80.25276 z m 19.29981,-213.02182 -39.19476,-35.42382 -46.64023,-14.00528 -54.31722,16.10456 -46.63671,33.32454 48.18326,25.28346 15.96693,-22.00651 z m -186.78892,0 -26.17262,26.49132 -15.47865,34.66606 31.02258,11.3678 43.30009,-1.71678 52.98041,-22.69623 -33.83368,-1.63846 -3.63487,-21.19025 z"
       id="path2973"
       inkscape:label="Peripheral"
       sodipodi:nodetypes="ccccccccccccccccccccccccccccccccccccc" /></g><g
     inkscape:groupmode="layer"
     id="layer6"
     inkscape:label="Walls"
     style="display:inline"><path
       style="display:inline;fill:#dc9846;fill-opacity:1;stroke:none;stroke-width:0.2;stroke-linecap:round;stroke-linejoin:round;stroke-dasharray:none;stroke-opacity:1"
       d="m 108.30666,619.14146 c 18.10586,-3.26073 40.05546,-40.52382 38.4263,-65.89232 -1.8516,-28.83101 -18.39599,-42.49389 -52.892156,-68.6949 -4.552326,-3.1313 -9.720945,-2.71901 -15.314284,-2.77008 L 90.561148,637.2104 c 4.445693,-7.85447 6.411364,-14.75318 17.745512,-18.06894 z"
       id="path878-1"
       sodipodi:nodetypes="cacccc" /><path
       id="path296-7"
       style="display:inline;fill:#dc9846;fill-opacity:1;stroke:none;stroke-width:0.2;stroke-linecap:round;stroke-linejoin:round;stroke-dasharray:none;stroke-opacity:1"
       d="m 214.11124,679.16737 c 0,0 5.00057,-19.348 9.99349,-27.85809 16.13185,-27.4956 44.42404,-46.08902 62.83215,-72.11829 26.61312,-37.63112 54.44993,-76.33369 68.02485,-120.37005 10.3794,-33.66988 12.85522,-70.32355 8.82772,-105.3238 -2.70095,-23.47258 -21.8094,-67.44886 -21.8094,-67.44886 l -27.49823,-64.48 -14.48218,-13.86443 c 0,0 -25.38032,5.84062 -33.83368,-1.63846 -5.36982,-4.75092 -5.2614,-14.21054 -3.63487,-21.19025 2.05639,-8.82425 7.35433,-24.84157 15.9669,-22.00655 47.5472,15.65118 78.63542,90.15716 93.26423,146.01544 15.45424,59.01033 8.27084,124.59024 -10.28113,182.70268 -17.04766,53.4006 -58.98106,108.86306 -89.59243,142.3468 z"
       sodipodi:nodetypes="caaaacccaassscc" /><path
       id="path1016-6"
       style="display:inline;fill:#dc9846;fill-opacity:1;stroke:none;stroke-width:0.2;stroke-linecap:round;stroke-linejoin:round;stroke-dasharray:none;stroke-opacity:1"
       d="m 154.39032,272.19678 c 54.76798,8.8169 102.42873,-23.92794 160.0915,-50.6285 l -14.48218,-13.86443 c 0,0 -48.58065,22.13644 -74.63045,23.55462 -17.87768,0.97324 -52.67259,-10.50941 -52.67259,-10.50941 0,0 -32.95303,49.08978 -18.30628,51.44772 z"
       sodipodi:nodetypes="sccacs" /><path
       id="path1365"
       style="fill:#ebb46b;fill-opacity:1;stroke:none;stroke-width:0.2;stroke-linecap:round;stroke-linejoin:round;stroke-dasharray:none;stroke-dashoffset:0;stroke-opacity:1"
       d="m 217.35417,456.74555 c 0,0 -35.13233,-52.38826 -45.47748,-81.8244 -11.51732,-32.77146 -20.49158,-68.1212 -17.48637,-102.72437 1.57473,-18.13267 12.08867,-34.33995 18.30628,-51.44772 18.64758,-51.30882 103.26669,-114.19247 142.60516,-110.58648 92.1094,8.44327 112.49257,103.33485 124.30166,142.16125 12.9865,42.69775 27.52377,144.72173 5.19288,211.68546 -17.14219,51.40412 -68.11331,102.09717 -100.73928,127.63374 l -87.23797,56.0345 c -22.02113,11.17106 -37.09745,23.44425 -50.21759,40.46925 -17.30775,22.45926 -31.42018,51.97858 -34.72477,77.63655 0,0 -5.60677,19.29759 -6.44997,29.24375 -3.25744,38.42571 29.54131,65.41655 62.31301,63.78026 51.05129,1.16099 124.24609,-81.47499 168.24478,-139.53033 57.63157,-76.04351 98.57451,-167.76995 116.31726,-261.4937 18.87026,-99.67836 17.9075,-248.44099 -13.50106,-304.03845 C 463.08025,90.514731 384.2546,35.352743 311.862,41.676116 234.43617,48.439155 120.33117,145.28631 97.059805,192.08661 61.555771,263.48808 76.13225,379.10369 93.020897,412.59675 c 14.206353,28.17353 78.855793,45.49065 124.333273,44.1488"
       sodipodi:nodetypes="caassssccscscsssscsc" /><path
       style="fill:#ebc393;fill-opacity:1;stroke:none;stroke-width:0.0999997;stroke-linecap:round;stroke-linejoin:round"
       d="m 93.020897,412.59675 -15.870673,51.41257 1.376311,17.77484 15.314303,2.76999 26.020002,20.70839 c 0,0 7.02582,-5.31108 10.89697,-7.37285 13.04652,-6.94873 26.86239,-12.70037 41.11892,-16.6124 10.88762,-2.98756 22.89968,-9.04887 33.48276,-5.1177 8.15647,3.02975 12.99072,12.09205 16.95956,19.82964 4.26017,8.30559 5.17174,17.98243 6.66273,27.19557 1.49206,9.22029 4.16507,18.78601 2.2565,27.92928 -2.43435,11.66228 -10.06329,21.73719 -16.89039,31.50417 -3.43953,4.92061 -7.47858,9.47779 -11.98449,13.44693 -4.24007,3.73497 -8.67293,7.64316 -13.9779,9.59301 -9.20402,3.38294 -19.57453,4.53429 -29.26472,3.02633 -15.28147,-2.37809 -23.97689,-10.53733 -23.97689,-10.53733 0,0 -18.74229,18.58811 -26.83723,20.99427 -11.024107,3.27692 -17.745512,18.06894 -17.745512,18.06894 l 13.479442,9.90304 c 0,0 13.03903,-10.89379 20.9752,-13.17993 6.98316,-2.01163 14.68422,-1.46301 21.80276,0 10.70062,2.19918 30.11316,12.92472 30.11316,12.92472 0,0 29.62998,-21.33266 42.70507,-33.97786 9.54023,-9.2265 20.12555,-18.32244 25.81481,-30.30909 9.04076,-19.04804 8.58142,-41.31912 11.36746,-62.21593 1.72762,-12.95799 9.37752,-27.49915 3.30472,-39.07806 -7.63015,-14.5483 -42.76956,-24.53174 -42.76956,-24.53174 0,0 -46.01436,0.76466 -67.2531,-6.74814 -21.44861,-7.587 -57.080213,-37.40066 -57.080213,-37.40066 z"
       id="path1510"
       sodipodi:nodetypes="cccccaaaaaaaaascsccaacaaaacac" /><path
       style="fill:#e8bb85;fill-opacity:1;stroke:none;stroke-width:0.0999997;stroke-linecap:round;stroke-linejoin:round"
       d="m 104.04059,647.11344 c 0,0 9.57634,5.92281 13.47943,9.9031 8.88995,9.06578 15.11395,20.42844 21.9431,31.13024 12.55748,19.67856 34.91601,60.70386 34.91601,60.70386 0,0 9.64726,-24.64314 16.15983,-36.11116 6.75183,-11.88935 23.57228,-33.57202 23.57228,-33.57202 0,0 -10.99764,-2.66545 -16.49647,-3.99816 -5.49883,-1.33274 -12.63292,0.13285 -16.49647,-3.99803 -5.61977,-6.00799 0.41765,-17.49685 -4.18662,-24.31304 -3.42382,-5.06861 -9.95147,-7.33353 -15.61641,-9.64783 -4.58584,-1.8735 -9.573,-2.72737 -14.49672,-3.27689 -7.22266,-0.80613 -21.80276,0 -21.80276,0 l -27.714908,8.22836 z"
       id="path1730"
       sodipodi:nodetypes="caacacaaaaaccc" /></g><g
     inkscape:groupmode="layer"
     id="layer2"
     inkscape:label="Boundary"
     style="display:inline"><path
       style="fill:#000080;fill-opacity:0;stroke:#000000;stroke-width:0.4;stroke-linecap:round;stroke-linejoin:round;stroke-dasharray:none;stroke-opacity:1"
       d="m 93.840804,484.55424 c 34.496166,26.20101 51.040556,39.86389 52.892156,68.6949 1.62916,25.3685 -20.32044,62.63159 -38.4263,65.89232"
       id="path878"
       sodipodi:nodetypes="cac" /><path
       style="fill:#000080;fill-opacity:0;stroke:#000000;stroke-width:0.4;stroke-linecap:round;stroke-linejoin:round;stroke-dasharray:none;stroke-opacity:1"
       d="M 217.35421,456.74555 C 171.87673,458.0874 107.22728,440.77028 93.020933,412.59675 76.132277,379.10369 61.555798,263.48808 97.059839,192.08661 120.3312,145.28631 234.43617,48.439151 311.86206,41.676113 384.2546,35.352737 463.08028,90.514724 498.80077,153.74486 c 31.40857,55.59743 32.37126,204.36009 13.50106,304.03845 -17.74281,93.72375 -58.68566,185.45019 -116.31732,261.4937 -43.99869,58.05534 -117.19346,140.69132 -168.24474,139.53033 -18.75133,-0.42579 -56.68295,-2.72971 -62.31301,-63.78026"
       id="path1030"
       sodipodi:nodetypes="cssssaasc" /><path
       style="fill:#000080;fill-opacity:0;stroke:#000000;stroke-width:0.4;stroke-linecap:round;stroke-linejoin:round;stroke-dasharray:none;stroke-opacity:1"
       d="m 278.49802,162.86858 c 72.74744,45.43167 78.63539,90.15714 93.2642,146.01545 15.4543,59.01033 8.27084,124.59019 -10.28107,182.70268 -17.04772,53.4006 -58.98109,108.86306 -89.59249,142.34677"
       id="path296"
       sodipodi:nodetypes="caac" /><path
       style="fill:#000080;fill-opacity:0;stroke:#000000;stroke-width:0.4;stroke-linecap:round;stroke-linejoin:round;stroke-dasharray:none;stroke-opacity:1"
       d="m 154.39035,272.19678 c 68.37646,4.12385 102.42876,-23.92794 160.09147,-50.6285"
       id="path1016"
       sodipodi:nodetypes="cc" /><path
       style="fill:#000080;fill-opacity:0;stroke:#000000;stroke-width:0.0999997;stroke-linecap:round;stroke-linejoin:round;stroke-dasharray:none;stroke-opacity:1"
       d="m 172.69663,220.74906 c 6.54769,-52.42705 103.26669,-114.19248 142.60518,-110.58649 92.10942,8.44327 112.49252,103.33486 124.30161,142.16126 12.9865,42.69775 27.52377,144.7217 5.19288,211.68546 -17.14219,51.40412 -68.11327,102.09717 -100.73921,127.63374"
       id="path1033"
       sodipodi:nodetypes="cssac" /><path
       style="fill:#000080;fill-opacity:0;stroke:#000000;stroke-width:0.0999997;stroke-linecap:round;stroke-linejoin:round;stroke-dasharray:none;stroke-opacity:1"
       d="m 171.87673,765.78333 c 3.30458,-25.65797 17.41698,-55.17729 34.72477,-77.63655 13.12014,-17.025 28.19642,-29.29819 50.21761,-40.46934"
       id="path2772"
       sodipodi:nodetypes="cac" /><path
       style="fill:none;fill-opacity:1;stroke:#000000;stroke-width:0.0999997;stroke-linecap:round;stroke-linejoin:round;stroke-dasharray:none;stroke-dashoffset:0;stroke-opacity:1"
       d="m 130.75778,497.88964 c 0,0 26.8624,-12.70035 41.11891,-16.61235 10.88766,-2.98756 22.89972,-9.04887 33.4828,-5.11767 8.15643,3.02978 12.99069,12.09202 16.95952,19.82961 4.26021,8.30559 5.17174,17.98243 6.66273,27.19557 1.4921,9.22029 4.16511,18.78601 2.25654,27.92928 -2.43438,11.66228 -9.50339,22.15277 -16.89039,31.50417 -7.17115,9.0781 -15.3687,18.38028 -25.96243,23.03994 -8.97576,3.94795 -19.46092,3.27803 -29.26471,3.02633 -5.15351,-0.13285 -15.28144,-2.37809 -15.28144,-2.37809"
       id="path3843"
       sodipodi:nodetypes="caaaaaaaac" /><path
       style="fill:none;fill-opacity:1;stroke:#000000;stroke-width:0.0999997;stroke-linecap:round;stroke-linejoin:round;stroke-opacity:1"
       d="m 197.61477,675.1693 c 0,0 -12.63292,0.13285 -16.49647,-3.99803 -5.61977,-6.00799 0.90961,-17.85578 -4.18662,-24.31304 -6.76453,-8.57117 -19.41251,-10.72554 -30.11313,-12.92472 -7.11858,-1.46301 -21.80276,0 -21.80276,0"
       id="path1239"
       sodipodi:nodetypes="caaac" /></g></svg>
